<?xml version="1.0" encoding="UTF-8" standalone="no"?><!DOCTYPE svg PUBLIC "-//W3C//DTD SVG 1.1//EN" "http://www.w3.org/Graphics/SVG/1.1/DTD/svg11.dtd"><svg width="100%" height="100%" viewBox="0 0 214 129" version="1.1" xmlns="http://www.w3.org/2000/svg" xmlns:xlink="http://www.w3.org/1999/xlink" xml:space="preserve" xmlns:serif="http://www.serif.com/" style="fill-rule:evenodd;clip-rule:evenodd;stroke-linecap:round;stroke-linejoin:round;stroke-miterlimit:1.5;"><g><g><path d="M29.17,80.432c0,-0.036 -0.029,-0.065 -0.065,-0.065l-3.536,0c-0.036,0 -0.064,0.029 -0.064,0.065l0,3.098c0,0.035 0.028,0.064 0.064,0.064l3.536,0c0.036,0 0.065,-0.029 0.065,-0.064l0,-3.098Z" style="fill:#4d1d73;stroke:#e96396;stroke-width:0.3px;"/><rect x="26.054" y="76.789" width="2.566" height="3.579" style="fill:#4d1d73;stroke:#e96396;stroke-width:0.3px;"/><path d="M27.337,69.544l0.306,5.62l-0.611,0l0.305,-5.62Z" style="fill:#4d1d73;stroke:#e96396;stroke-width:0.3px;"/><path d="M28.987,76.789c0,-1.145 -0.739,-2.074 -1.65,-2.074c-0.911,0 -1.649,0.929 -1.649,2.074l3.299,0Z" style="fill:#4d1d73;stroke:#e96396;stroke-width:0.3px;"/></g><g><path d="M188.984,80.432c0,-0.036 -0.029,-0.065 -0.064,-0.065l-3.537,0c-0.035,0 -0.064,0.029 -0.064,0.065l0,3.162l3.665,0l0,-3.162Z" style="fill:#4d1d73;stroke:#e96396;stroke-width:0.3px;"/><rect x="185.869" y="76.789" width="2.566" height="3.579" style="fill:#4d1d73;stroke:#e96396;stroke-width:0.3px;"/><path d="M187.152,69.544l0.305,5.62l-0.611,0l0.306,-5.62Z" style="fill:#4d1d73;stroke:#e96396;stroke-width:0.3px;"/><path d="M188.801,76.789c0,-1.145 -0.739,-2.074 -1.649,-2.074c-0.911,0 -1.65,0.929 -1.65,2.074l3.299,0Z" style="fill:#4d1d73;stroke:#e96396;stroke-width:0.3px;"/></g><g><g><rect x="183.483" y="84.938" width="19.304" height="12.095" style="fill:#4d1d73;stroke:#e96396;stroke-width:0.3px;"/><path d="M193.623,84.938l-1.099,-2.566l-9.041,0l0,2.566l10.14,0Z" style="fill:#4d1d73;stroke:#e96396;stroke-width:0.3px;"/></g><path d="M138.033,97.034l74.221,0c0.169,0 0.307,0.137 0.307,0.306l0,30.053c0,0.169 -0.138,0.307 -0.307,0.307l-74.221,0l0,-30.666Z" style="fill:#4d1d73;stroke:#e96396;stroke-width:1px;stroke-linecap:butt;stroke-miterlimit:1.41421;"/><g><g><path d="M167.233,119.697c0,-1.45 -1.285,-2.626 -2.871,-2.626c-1.586,0 -2.871,1.176 -2.871,2.626l5.742,0Z" style="fill:#4d1d73;stroke:#e96396;stroke-width:0.3px;"/><rect x="161.491" y="119.697" width="5.742" height="2.26" style="fill:#4d1d73;stroke:#e96396;stroke-width:0.3px;"/></g><g><path d="M156.543,119.697c0,-1.45 -1.286,-2.626 -2.872,-2.626c-1.585,0 -2.871,1.176 -2.871,2.626l5.743,0Z" style="fill:#4d1d73;stroke:#e96396;stroke-width:0.3px;"/><rect x="150.8" y="119.697" width="5.742" height="2.26" style="fill:#4d1d73;stroke:#e96396;stroke-width:0.3px;"/></g><g><path d="M145.852,119.697c0,-1.45 -1.285,-2.626 -2.871,-2.626c-1.586,0 -2.871,1.176 -2.871,2.626l5.742,0Z" style="fill:#4d1d73;stroke:#e96396;stroke-width:0.3px;"/><rect x="140.11" y="119.697" width="5.742" height="2.26" style="fill:#4d1d73;stroke:#e96396;stroke-width:0.3px;"/></g></g><g><g><rect x="189.103" y="111.084" width="2.932" height="3.054" style="fill:#4d1d73;stroke:#e96396;stroke-width:0.3px;"/><path d="M192.035,111.084c0,-0.823 -0.657,-1.491 -1.466,-1.491c-0.81,0 -1.466,0.668 -1.466,1.491l2.932,0Z" style="fill:#4d1d73;stroke:#e96396;stroke-width:0.3px;"/></g><g><rect x="197.655" y="111.084" width="2.932" height="3.054" style="fill:#4d1d73;stroke:#e96396;stroke-width:0.3px;"/><path d="M200.587,111.084c0,-0.823 -0.656,-1.491 -1.466,-1.491c-0.81,0 -1.466,0.668 -1.466,1.491l2.932,0Z" style="fill:#4d1d73;stroke:#e96396;stroke-width:0.3px;"/></g><g><rect x="205.474" y="111.084" width="2.932" height="3.054" style="fill:#4d1d73;stroke:#e96396;stroke-width:0.3px;"/><path d="M208.407,111.084c0,-0.823 -0.657,-1.491 -1.467,-1.491c-0.809,0 -1.466,0.668 -1.466,1.491l2.933,0Z" style="fill:#4d1d73;stroke:#e96396;stroke-width:0.3px;"/></g></g><g><g><rect x="189.103" y="119.636" width="2.932" height="3.054" style="fill:#4d1d73;stroke:#e96396;stroke-width:0.3px;"/><path d="M192.035,119.636c0,-0.823 -0.657,-1.49 -1.466,-1.49c-0.81,0 -1.466,0.667 -1.466,1.49l2.932,0Z" style="fill:#4d1d73;stroke:#e96396;stroke-width:0.3px;"/></g><g><rect x="197.655" y="119.636" width="2.932" height="3.054" style="fill:#4d1d73;stroke:#e96396;stroke-width:0.3px;"/><path d="M200.587,119.636c0,-0.823 -0.656,-1.49 -1.466,-1.49c-0.81,0 -1.466,0.667 -1.466,1.49l2.932,0Z" style="fill:#4d1d73;stroke:#e96396;stroke-width:0.3px;"/></g><g><rect x="205.474" y="119.636" width="2.932" height="3.054" style="fill:#4d1d73;stroke:#e96396;stroke-width:0.3px;"/><path d="M208.407,119.636c0,-0.823 -0.657,-1.49 -1.467,-1.49c-0.809,0 -1.466,0.667 -1.466,1.49l2.933,0Z" style="fill:#4d1d73;stroke:#e96396;stroke-width:0.3px;"/></g></g><g><g><rect x="197.655" y="102.331" width="2.932" height="2.644" style="fill:#4d1d73;stroke:#e96396;stroke-width:0.3px;"/><path d="M200.587,102.331c0,-0.712 -0.656,-1.29 -1.466,-1.29c-0.81,0 -1.466,0.578 -1.466,1.29l2.932,0Z" style="fill:#4d1d73;stroke:#e96396;stroke-width:0.3px;"/></g><g><rect x="189.103" y="102.331" width="2.932" height="2.644" style="fill:#4d1d73;stroke:#e96396;stroke-width:0.3px;"/><path d="M192.035,102.331c0,-0.712 -0.657,-1.29 -1.466,-1.29c-0.81,0 -1.466,0.578 -1.466,1.29l2.932,0Z" style="fill:#4d1d73;stroke:#e96396;stroke-width:0.3px;"/></g><g><rect x="201.565" y="102.331" width="2.932" height="2.644" style="fill:#4d1d73;stroke:#e96396;stroke-width:0.3px;"/><path d="M204.497,102.331c0,-0.712 -0.657,-1.29 -1.466,-1.29c-0.81,0 -1.466,0.578 -1.466,1.29l2.932,0Z" style="fill:#4d1d73;stroke:#e96396;stroke-width:0.3px;"/></g><g><rect x="205.474" y="102.532" width="2.932" height="2.444" style="fill:#4d1d73;stroke:#e96396;stroke-width:0.3px;"/><path d="M208.407,102.532c0,-0.824 -0.657,-1.491 -1.467,-1.491c-0.809,0 -1.466,0.667 -1.466,1.491l2.933,0Z" style="fill:#4d1d73;stroke:#e96396;stroke-width:0.3px;"/></g></g><g><g><g><rect x="139.988" y="108.885" width="2.566" height="4.521" style="fill:#4d1d73;stroke:#e96396;stroke-width:0.3px;"/><path d="M142.553,108.885c0,-0.608 -0.574,-1.1 -1.282,-1.1c-0.709,0 -1.283,0.492 -1.283,1.1l2.565,0Z" style="fill:#4d1d73;stroke:#e96396;stroke-width:0.3px;"/></g><g><rect x="143.286" y="108.885" width="2.566" height="4.521" style="fill:#4d1d73;stroke:#e96396;stroke-width:0.3px;"/><path d="M145.852,108.885c0,-0.608 -0.574,-1.1 -1.283,-1.1c-0.708,0 -1.283,0.492 -1.283,1.1l2.566,0Z" style="fill:#4d1d73;stroke:#e96396;stroke-width:0.3px;"/></g><path d="M146.219,106.127c0,-1.703 -1.477,-3.083 -3.299,-3.083c-1.822,0 -3.299,1.38 -3.299,3.083l6.598,0Z" style="fill:#4d1d73;stroke:#e96396;stroke-width:0.3px;"/></g><g><g><rect x="150.739" y="108.885" width="2.566" height="4.521" style="fill:#4d1d73;stroke:#e96396;stroke-width:0.3px;"/><path d="M153.305,108.885c0,-0.608 -0.574,-1.1 -1.283,-1.1c-0.708,0 -1.283,0.492 -1.283,1.1l2.566,0Z" style="fill:#4d1d73;stroke:#e96396;stroke-width:0.3px;"/></g><g><rect x="154.038" y="108.885" width="2.566" height="4.521" style="fill:#4d1d73;stroke:#e96396;stroke-width:0.3px;"/><path d="M156.604,108.885c0,-0.608 -0.575,-1.1 -1.283,-1.1c-0.709,0 -1.283,0.492 -1.283,1.1l2.566,0Z" style="fill:#4d1d73;stroke:#e96396;stroke-width:0.3px;"/></g><path d="M156.97,106.127c0,-1.703 -1.477,-3.083 -3.299,-3.083c-1.821,0 -3.298,1.38 -3.298,3.083l6.597,0Z" style="fill:#4d1d73;stroke:#e96396;stroke-width:0.3px;"/></g><g><g><rect x="161.491" y="108.885" width="2.566" height="4.521" style="fill:#4d1d73;stroke:#e96396;stroke-width:0.3px;"/><path d="M164.056,108.885c0,-0.608 -0.574,-1.1 -1.282,-1.1c-0.709,0 -1.283,0.492 -1.283,1.1l2.565,0Z" style="fill:#4d1d73;stroke:#e96396;stroke-width:0.3px;"/></g><g><rect x="164.789" y="108.885" width="2.566" height="4.521" style="fill:#4d1d73;stroke:#e96396;stroke-width:0.3px;"/><path d="M167.355,108.885c0,-0.608 -0.574,-1.1 -1.283,-1.1c-0.708,0 -1.283,0.492 -1.283,1.1l2.566,0Z" style="fill:#4d1d73;stroke:#e96396;stroke-width:0.3px;"/></g><path d="M167.722,106.127c0,-1.703 -1.477,-3.083 -3.299,-3.083c-1.822,0 -3.299,1.38 -3.299,3.083l6.598,0Z" style="fill:#4d1d73;stroke:#e96396;stroke-width:0.3px;"/></g></g><g><path d="M202.743,77.505c-1.09,1.894 -2.621,1.641 -2.949,4.469c-0.625,5.394 -3.535,8.633 -4.871,10.906l0,4.154l7.82,0" style="fill:#4d1d73;stroke:#e96396;stroke-width:1px;"/><path d="M202.743,77.505c1.089,1.894 2.62,1.641 2.948,4.469c0.625,5.394 3.535,8.633 4.871,10.906l0,4.154l-7.819,0" style="fill:#4d1d73;stroke:#e96396;stroke-width:1px;"/><g><rect x="200.478" y="91.902" width="4.521" height="5.131" style="fill:#4d1d73;stroke:#e96396;stroke-width:0.3px;"/><path d="M202.743,89.581l2.26,2.321l-4.521,0l2.261,-2.321Z" style="fill:#4d1d73;stroke:#e96396;stroke-width:0.3px;"/></g></g></g><g><g><rect x="11.58" y="84.938" width="19.304" height="12.095" style="fill:#4d1d73;stroke:#e96396;stroke-width:0.3px;"/><path d="M20.743,84.938l1.1,-2.566l9.041,0l0,2.566l-10.141,0Z" style="fill:#4d1d73;stroke:#e96396;stroke-width:0.3px;"/></g><path d="M1.439,97.34c0,-0.169 0.138,-0.306 0.307,-0.306l74.221,0l0,30.666l-74.221,0c-0.169,0 -0.307,-0.138 -0.307,-0.307l0,-30.053Z" style="fill:#4d1d73;stroke:#e96396;stroke-width:1px;stroke-linecap:butt;stroke-miterlimit:1.41421;"/><g><g><path d="M73.89,119.697c0,-1.45 -1.285,-2.626 -2.871,-2.626c-1.586,0 -2.871,1.176 -2.871,2.626l5.742,0Z" style="fill:#4d1d73;stroke:#e96396;stroke-width:0.3px;"/><rect x="68.148" y="119.697" width="5.742" height="2.26" style="fill:#4d1d73;stroke:#e96396;stroke-width:0.3px;"/></g><g><path d="M63.2,119.697c0,-1.45 -1.286,-2.626 -2.871,-2.626c-1.586,0 -2.872,1.176 -2.872,2.626l5.743,0Z" style="fill:#4d1d73;stroke:#e96396;stroke-width:0.3px;"/><rect x="57.457" y="119.697" width="5.742" height="2.26" style="fill:#4d1d73;stroke:#e96396;stroke-width:0.3px;"/></g><g><path d="M52.509,119.697c0,-1.45 -1.285,-2.626 -2.871,-2.626c-1.586,0 -2.871,1.176 -2.871,2.626l5.742,0Z" style="fill:#4d1d73;stroke:#e96396;stroke-width:0.3px;"/><rect x="46.767" y="119.697" width="5.742" height="2.26" style="fill:#4d1d73;stroke:#e96396;stroke-width:0.3px;"/></g></g><g><g><rect x="22.454" y="111.084" width="2.932" height="3.054" style="fill:#4d1d73;stroke:#e96396;stroke-width:0.3px;"/><path d="M22.454,111.084c0,-0.823 0.656,-1.491 1.466,-1.491c0.81,0 1.466,0.668 1.466,1.491l-2.932,0Z" style="fill:#4d1d73;stroke:#e96396;stroke-width:0.3px;"/></g><g><rect x="13.901" y="111.084" width="2.932" height="3.054" style="fill:#4d1d73;stroke:#e96396;stroke-width:0.3px;"/><path d="M13.901,111.084c0,-0.823 0.657,-1.491 1.467,-1.491c0.809,0 1.466,0.668 1.466,1.491l-2.933,0Z" style="fill:#4d1d73;stroke:#e96396;stroke-width:0.3px;"/></g><g><rect x="6.082" y="111.084" width="2.932" height="3.054" style="fill:#4d1d73;stroke:#e96396;stroke-width:0.3px;"/><path d="M6.082,111.084c0,-0.823 0.657,-1.491 1.466,-1.491c0.81,0 1.466,0.668 1.466,1.491l-2.932,0Z" style="fill:#4d1d73;stroke:#e96396;stroke-width:0.3px;"/></g></g><g><g><rect x="22.454" y="119.636" width="2.932" height="3.054" style="fill:#4d1d73;stroke:#e96396;stroke-width:0.3px;"/><path d="M22.454,119.636c0,-0.823 0.656,-1.49 1.466,-1.49c0.81,0 1.466,0.667 1.466,1.49l-2.932,0Z" style="fill:#4d1d73;stroke:#e96396;stroke-width:0.3px;"/></g><g><rect x="13.901" y="119.636" width="2.932" height="3.054" style="fill:#4d1d73;stroke:#e96396;stroke-width:0.3px;"/><path d="M13.901,119.636c0,-0.823 0.657,-1.49 1.467,-1.49c0.809,0 1.466,0.667 1.466,1.49l-2.933,0Z" style="fill:#4d1d73;stroke:#e96396;stroke-width:0.3px;"/></g><g><rect x="6.082" y="119.636" width="2.932" height="3.054" style="fill:#4d1d73;stroke:#e96396;stroke-width:0.3px;"/><path d="M6.082,119.636c0,-0.823 0.657,-1.49 1.466,-1.49c0.81,0 1.466,0.667 1.466,1.49l-2.932,0Z" style="fill:#4d1d73;stroke:#e96396;stroke-width:0.3px;"/></g></g><g><g><rect x="13.901" y="102.331" width="2.932" height="2.644" style="fill:#4d1d73;stroke:#e96396;stroke-width:0.3px;"/><path d="M13.901,102.331c0,-0.712 0.657,-1.29 1.467,-1.29c0.809,0 1.466,0.578 1.466,1.29l-2.933,0Z" style="fill:#4d1d73;stroke:#e96396;stroke-width:0.3px;"/></g><g><rect x="22.209" y="102.331" width="2.932" height="2.644" style="fill:#4d1d73;stroke:#e96396;stroke-width:0.3px;"/><path d="M22.209,102.331c0,-0.712 0.657,-1.29 1.467,-1.29c0.809,0 1.466,0.578 1.466,1.29l-2.933,0Z" style="fill:#4d1d73;stroke:#e96396;stroke-width:0.3px;"/></g><g><rect x="9.992" y="102.331" width="2.932" height="2.644" style="fill:#4d1d73;stroke:#e96396;stroke-width:0.3px;"/><path d="M9.992,102.331c0,-0.712 0.656,-1.29 1.466,-1.29c0.81,0 1.466,0.578 1.466,1.29l-2.932,0Z" style="fill:#4d1d73;stroke:#e96396;stroke-width:0.3px;"/></g><g><rect x="6.082" y="102.532" width="2.932" height="2.444" style="fill:#4d1d73;stroke:#e96396;stroke-width:0.3px;"/><path d="M6.082,102.532c0,-0.824 0.657,-1.491 1.466,-1.491c0.81,0 1.466,0.667 1.466,1.491l-2.932,0Z" style="fill:#4d1d73;stroke:#e96396;stroke-width:0.3px;"/></g></g><g><g><g><rect x="46.645" y="108.885" width="2.566" height="4.521" style="fill:#4d1d73;stroke:#e96396;stroke-width:0.3px;"/><path d="M49.211,108.885c0,-0.608 -0.575,-1.1 -1.283,-1.1c-0.709,0 -1.283,0.492 -1.283,1.1l2.566,0Z" style="fill:#4d1d73;stroke:#e96396;stroke-width:0.3px;"/></g><g><rect x="49.944" y="108.885" width="2.566" height="4.521" style="fill:#4d1d73;stroke:#e96396;stroke-width:0.3px;"/><path d="M52.509,108.885c0,-0.608 -0.574,-1.1 -1.283,-1.1c-0.708,0 -1.282,0.492 -1.282,1.1l2.565,0Z" style="fill:#4d1d73;stroke:#e96396;stroke-width:0.3px;"/></g><path d="M52.876,106.127c0,-1.703 -1.477,-3.083 -3.299,-3.083c-1.822,0 -3.299,1.38 -3.299,3.083l6.598,0Z" style="fill:#4d1d73;stroke:#e96396;stroke-width:0.3px;"/></g><g><g><rect x="57.396" y="108.885" width="2.566" height="4.521" style="fill:#4d1d73;stroke:#e96396;stroke-width:0.3px;"/><path d="M59.962,108.885c0,-0.608 -0.574,-1.1 -1.283,-1.1c-0.708,0 -1.283,0.492 -1.283,1.1l2.566,0Z" style="fill:#4d1d73;stroke:#e96396;stroke-width:0.3px;"/></g><g><rect x="60.695" y="108.885" width="2.566" height="4.521" style="fill:#4d1d73;stroke:#e96396;stroke-width:0.3px;"/><path d="M63.261,108.885c0,-0.608 -0.575,-1.1 -1.283,-1.1c-0.709,0 -1.283,0.492 -1.283,1.1l2.566,0Z" style="fill:#4d1d73;stroke:#e96396;stroke-width:0.3px;"/></g><path d="M63.627,106.127c0,-1.703 -1.477,-3.083 -3.298,-3.083c-1.822,0 -3.299,1.38 -3.299,3.083l6.597,0Z" style="fill:#4d1d73;stroke:#e96396;stroke-width:0.3px;"/></g><g><g><rect x="68.148" y="108.885" width="2.566" height="4.521" style="fill:#4d1d73;stroke:#e96396;stroke-width:0.3px;"/><path d="M70.714,108.885c0,-0.608 -0.575,-1.1 -1.283,-1.1c-0.709,0 -1.283,0.492 -1.283,1.1l2.566,0Z" style="fill:#4d1d73;stroke:#e96396;stroke-width:0.3px;"/></g><g><rect x="71.447" y="108.885" width="2.566" height="4.521" style="fill:#4d1d73;stroke:#e96396;stroke-width:0.3px;"/><path d="M74.012,108.885c0,-0.608 -0.574,-1.1 -1.283,-1.1c-0.708,0 -1.282,0.492 -1.282,1.1l2.565,0Z" style="fill:#4d1d73;stroke:#e96396;stroke-width:0.3px;"/></g><path d="M74.379,106.127c0,-1.703 -1.477,-3.083 -3.299,-3.083c-1.822,0 -3.299,1.38 -3.299,3.083l6.598,0Z" style="fill:#4d1d73;stroke:#e96396;stroke-width:0.3px;"/></g></g><g><path d="M11.458,77.505c-1.09,1.894 -2.62,1.641 -2.948,4.469c-0.625,5.394 -3.535,8.633 -4.871,10.906l0,4.154l7.819,0" style="fill:#4d1d73;stroke:#e96396;stroke-width:1px;"/><path d="M11.458,77.505c1.09,1.894 2.62,1.641 2.948,4.469c0.625,5.394 3.535,8.633 4.871,10.906l0,4.154l-7.819,0" style="fill:#4d1d73;stroke:#e96396;stroke-width:1px;"/><g><rect x="9.196" y="91.902" width="4.521" height="5.131" style="fill:#4d1d73;stroke:#e96396;stroke-width:0.3px;"/><path d="M11.46,89.581l2.26,2.321l-4.52,0l2.26,-2.321Z" style="fill:#4d1d73;stroke:#e96396;stroke-width:0.3px;"/></g></g></g><g><path d="M78.012,57.693l0.289,6.719l-0.578,0l0.289,-6.719Z" style="fill:#4d1d73;stroke:#e96396;stroke-width:0.3px;"/><path d="M79.384,66.489c0,-1.484 -0.614,-2.687 -1.372,-2.687c-0.758,0 -1.373,1.203 -1.373,2.687l2.745,0Z" style="fill:#4d1d73;stroke:#e96396;stroke-width:0.3px;"/><rect x="76.639" y="66.367" width="2.745" height="12.829" style="fill:#4d1d73;stroke:#e96396;stroke-width:0.3px;"/></g><g><path d="M136.358,57.693l0.29,6.719l-0.579,0l0.289,-6.719Z" style="fill:#4d1d73;stroke:#e96396;stroke-width:0.3px;"/><path d="M137.731,66.489c0,-1.484 -0.614,-2.687 -1.373,-2.687c-0.758,0 -1.372,1.203 -1.372,2.687l2.745,0Z" style="fill:#4d1d73;stroke:#e96396;stroke-width:0.3px;"/><rect x="134.986" y="66.367" width="2.745" height="12.829" style="fill:#4d1d73;stroke:#e96396;stroke-width:0.3px;"/></g><g><path d="M30.884,70.197c0,-0.08 0.065,-0.145 0.144,-0.145l14.129,0c0.079,0 0.144,0.065 0.144,0.145l0,57.503l-14.417,0l0,-57.503Z" style="fill:#4d1d73;stroke:#e96396;stroke-width:1px;stroke-linecap:butt;stroke-miterlimit:1.41421;"/><g><rect x="36.382" y="110.229" width="4.643" height="3.421" style="fill:#4d1d73;stroke:#e96396;stroke-width:0.3px;"/><path d="M41.025,110.229c0,-1.046 -1.04,-1.894 -2.322,-1.894c-1.282,0 -2.321,0.848 -2.321,1.894l4.643,0Z" style="fill:#4d1d73;stroke:#e96396;stroke-width:0.3px;"/></g><g><rect x="37.909" y="99.477" width="1.588" height="3.125" style="fill:#4d1d73;stroke:#e96396;stroke-width:0.3px;"/><rect x="40.353" y="99.477" width="1.588" height="3.125" style="fill:#4d1d73;stroke:#e96396;stroke-width:0.3px;"/><rect x="35.466" y="99.477" width="1.588" height="3.125" style="fill:#4d1d73;stroke:#e96396;stroke-width:0.3px;"/></g><rect x="31.678" y="61.744" width="12.829" height="8.308" style="fill:#4d1d73;stroke:#e96396;stroke-width:0.3px;"/><path d="M38.092,38.531l6.415,23.213l-12.829,0l6.414,-23.213Z" style="fill:#4d1d73;stroke:#e96396;stroke-width:0.3px;"/><path d="M38.092,35.111l0.611,4.764l-1.221,0l0.61,-4.764Z" style="fill:#4d1d73;stroke:#e96396;stroke-width:0.3px;"/><path d="M41.452,43.662c0,-2.361 -1.504,-4.276 -3.36,-4.276c-1.855,0 -3.359,1.915 -3.359,4.276l6.719,0Z" style="fill:#4d1d73;stroke:#e96396;stroke-width:0.3px;"/><rect x="34.733" y="43.662" width="6.72" height="7.086" style="fill:#4d1d73;stroke:#e96396;stroke-width:0.3px;"/></g><g><path d="M169.188,70.197c0,-0.08 0.064,-0.145 0.144,-0.145l14.129,0c0.079,0 0.144,0.065 0.144,0.145l0,57.503l-14.417,0l0,-57.503Z" style="fill:#4d1d73;stroke:#e96396;stroke-width:1px;stroke-linecap:butt;stroke-miterlimit:1.41421;"/><g><rect x="174.075" y="110.229" width="4.643" height="3.421" style="fill:#4d1d73;stroke:#e96396;stroke-width:0.3px;"/><path d="M178.718,110.229c0,-1.046 -1.04,-1.894 -2.322,-1.894c-1.282,0 -2.321,0.848 -2.321,1.894l4.643,0Z" style="fill:#4d1d73;stroke:#e96396;stroke-width:0.3px;"/></g><g><rect x="175.602" y="99.477" width="1.588" height="3.125" style="fill:#4d1d73;stroke:#e96396;stroke-width:0.3px;"/><rect x="178.046" y="99.477" width="1.588" height="3.125" style="fill:#4d1d73;stroke:#e96396;stroke-width:0.3px;"/><rect x="173.159" y="99.477" width="1.588" height="3.125" style="fill:#4d1d73;stroke:#e96396;stroke-width:0.3px;"/></g><rect x="169.982" y="61.744" width="12.829" height="8.308" style="fill:#4d1d73;stroke:#e96396;stroke-width:0.3px;"/><path d="M176.396,38.531l6.415,23.213l-12.829,0l6.414,-23.213Z" style="fill:#4d1d73;stroke:#e96396;stroke-width:0.3px;"/><path d="M176.396,35.111l0.611,4.764l-1.222,0l0.611,-4.764Z" style="fill:#4d1d73;stroke:#e96396;stroke-width:0.3px;"/><path d="M179.756,43.662c0,-2.361 -1.504,-4.276 -3.36,-4.276c-1.855,0 -3.36,1.915 -3.36,4.276l6.72,0Z" style="fill:#4d1d73;stroke:#e96396;stroke-width:0.3px;"/><rect x="173.036" y="43.662" width="6.72" height="7.086" style="fill:#4d1d73;stroke:#e96396;stroke-width:0.3px;"/></g><path d="M136.2,78.829l24.96,0l6.146,9.897l1.004,0l0.878,5.498l0,2.81l-31.988,0l-1,-18.205" style="fill:#4d1d73;stroke:#e96396;stroke-width:0.3px;"/><path d="M78.289,78.829l-24.96,0l-6.147,9.897l-1.003,0l-0.878,5.498l0,2.81l31.988,0l1,-18.205" style="fill:#4d1d73;stroke:#e96396;stroke-width:0.3px;"/><g><path d="M138.033,89.962c0,-0.21 -0.171,-0.381 -0.381,-0.381l-61.304,0c-0.21,0 -0.381,0.171 -0.381,0.381l0,37.738l62.066,0l0,-37.738Z" style="fill:#4d1d73;stroke:#e96396;stroke-width:1px;stroke-linecap:butt;stroke-miterlimit:1.41421;"/><g><rect x="102.112" y="121.469" width="9.774" height="6.231" style="fill:#4d1d73;stroke:#e96396;stroke-width:1px;stroke-linecap:butt;stroke-miterlimit:1.41421;"/><rect x="102.112" y="121.469" width="9.774" height="6.231" style="fill:#4d1d73;stroke:#e96396;stroke-width:1px;stroke-linecap:butt;stroke-miterlimit:1.41421;"/><path d="M111.888,121.469c0,-2.379 -2.188,-4.307 -4.887,-4.307c-2.699,0 -4.887,1.928 -4.887,4.307l9.774,0Z" style="fill:#4d1d73;stroke:#e96396;stroke-width:1px;stroke-linecap:butt;stroke-miterlimit:1.41421;"/></g><g><rect x="120.409" y="121.469" width="9.774" height="6.231" style="fill:#4d1d73;stroke:#e96396;stroke-width:1px;stroke-linecap:butt;stroke-miterlimit:1.41421;"/><path d="M130.185,121.469c0,-2.379 -2.188,-4.307 -4.887,-4.307c-2.699,0 -4.887,1.928 -4.887,4.307l9.774,0Z" style="fill:#4d1d73;stroke:#e96396;stroke-width:1px;stroke-linecap:butt;stroke-miterlimit:1.41421;"/></g><g><rect x="83.815" y="121.469" width="9.774" height="6.231" style="fill:#4d1d73;stroke:#e96396;stroke-width:1px;stroke-linecap:butt;stroke-miterlimit:1.41421;"/><path d="M93.591,121.469c0,-2.379 -2.188,-4.307 -4.887,-4.307c-2.699,0 -4.887,1.928 -4.887,4.307l9.774,0Z" style="fill:#4d1d73;stroke:#e96396;stroke-width:1px;stroke-linecap:butt;stroke-miterlimit:1.41421;"/></g><g><rect x="105.291" y="105.952" width="3.787" height="8.552" style="fill:#4d1d73;stroke:#e96396;stroke-width:1px;stroke-linecap:butt;stroke-miterlimit:1.41421;"/><path d="M109.22,105.464c0.206,-0.297 0.315,-0.635 0.315,-0.978c0,-1.079 -1.054,-1.954 -2.352,-1.954c-1.298,0 -2.352,0.875 -2.352,1.954c0,0.343 0.109,0.681 0.315,0.978l4.074,0Z" style="fill:#4d1d73;stroke:#e96396;stroke-width:1px;stroke-linecap:butt;stroke-miterlimit:1.41421;"/><path d="M111.981,105.464c0,-2.935 -2.147,-5.315 -4.796,-5.315c-2.649,0 -4.796,2.38 -4.796,5.315l9.592,0Z" style="fill:#4d1d73;stroke:#e96396;stroke-width:1px;stroke-linecap:butt;stroke-miterlimit:1.41421;"/><rect x="109.69" y="105.952" width="1.833" height="8.552" style="fill:#4d1d73;stroke:#e96396;stroke-width:1px;stroke-linecap:butt;stroke-miterlimit:1.41421;"/><rect x="102.848" y="105.952" width="1.833" height="8.552" style="fill:#4d1d73;stroke:#e96396;stroke-width:1px;stroke-linecap:butt;stroke-miterlimit:1.41421;"/></g><g><rect x="123.496" y="105.952" width="3.787" height="8.552" style="fill:#4d1d73;stroke:#e96396;stroke-width:1px;stroke-linecap:butt;stroke-miterlimit:1.41421;"/><path d="M127.424,105.464c0.207,-0.297 0.315,-0.635 0.315,-0.978c0,-1.079 -1.053,-1.954 -2.351,-1.954c-1.298,0 -2.352,0.875 -2.352,1.954c0,0.343 0.108,0.681 0.315,0.978l4.073,0Z" style="fill:#4d1d73;stroke:#e96396;stroke-width:1px;stroke-linecap:butt;stroke-miterlimit:1.41421;"/><path d="M130.186,105.464c0,-2.935 -2.148,-5.315 -4.797,-5.315c-2.649,0 -4.796,2.38 -4.796,5.315l9.593,0Z" style="fill:#4d1d73;stroke:#e96396;stroke-width:1px;stroke-linecap:butt;stroke-miterlimit:1.41421;"/><rect x="127.894" y="105.952" width="1.833" height="8.552" style="fill:#4d1d73;stroke:#e96396;stroke-width:1px;stroke-linecap:butt;stroke-miterlimit:1.41421;"/><rect x="121.052" y="105.952" width="1.833" height="8.552" style="fill:#4d1d73;stroke:#e96396;stroke-width:1px;stroke-linecap:butt;stroke-miterlimit:1.41421;"/></g><g><rect x="87.087" y="105.952" width="3.787" height="8.552" style="fill:#4d1d73;stroke:#e96396;stroke-width:1px;stroke-linecap:butt;stroke-miterlimit:1.41421;"/><path d="M91.016,105.464c0.206,-0.297 0.315,-0.635 0.315,-0.978c0,-1.079 -1.054,-1.954 -2.352,-1.954c-1.298,0 -2.352,0.875 -2.352,1.954c0,0.343 0.109,0.681 0.315,0.978l4.074,0Z" style="fill:#4d1d73;stroke:#e96396;stroke-width:1px;stroke-linecap:butt;stroke-miterlimit:1.41421;"/><path d="M93.777,105.464c0,-2.935 -2.147,-5.315 -4.796,-5.315c-2.649,0 -4.797,2.38 -4.797,5.315l9.593,0Z" style="fill:#4d1d73;stroke:#e96396;stroke-width:1px;stroke-linecap:butt;stroke-miterlimit:1.41421;"/><rect x="91.485" y="105.952" width="1.833" height="8.552" style="fill:#4d1d73;stroke:#e96396;stroke-width:1px;stroke-linecap:butt;stroke-miterlimit:1.41421;"/><rect x="84.644" y="105.952" width="1.833" height="8.552" style="fill:#4d1d73;stroke:#e96396;stroke-width:1px;stroke-linecap:butt;stroke-miterlimit:1.41421;"/></g></g><g><g><rect x="68.148" y="90.436" width="6.231" height="6.598" style="fill:#4d1d73;stroke:#e96396;stroke-width:1px;stroke-linecap:butt;stroke-miterlimit:1.41421;"/><rect x="69.736" y="92.635" width="3.054" height="3.054" style="fill:#4d1d73;stroke:#e96396;stroke-width:1px;stroke-linecap:butt;stroke-miterlimit:1.41421;"/><path d="M72.791,92.635c0,-0.607 -0.684,-1.099 -1.528,-1.099c-0.843,0 -1.527,0.492 -1.527,1.099l3.055,0Z" style="fill:#4d1d73;stroke:#e96396;stroke-width:1px;stroke-linecap:butt;stroke-miterlimit:1.41421;"/><g><path d="M71.263,90.436l3.116,0c-0.992,-0.223 -0.619,-0.758 -1.367,-1.681c-0.472,-0.581 -1.223,-0.594 -1.749,-2.106l0,3.787Zm-0.061,0l-3.054,0c0.991,-0.223 0.618,-0.758 1.367,-1.681c0.472,-0.581 1.223,-0.594 1.748,-2.106l-0.061,3.787Z" style="fill:#4d1d73;stroke:#e96396;stroke-width:1px;"/><path d="M71.263,87.748l0,-0.977" style="fill:#4d1d73;stroke:#e96396;stroke-width:0.3px;"/></g></g><g><rect x="57.396" y="90.436" width="6.231" height="6.598" style="fill:#4d1d73;stroke:#e96396;stroke-width:1px;stroke-linecap:butt;stroke-miterlimit:1.41421;"/><rect x="58.985" y="92.635" width="3.054" height="3.054" style="fill:#4d1d73;stroke:#e96396;stroke-width:1px;stroke-linecap:butt;stroke-miterlimit:1.41421;"/><path d="M62.039,92.635c0,-0.607 -0.684,-1.099 -1.527,-1.099c-0.844,0 -1.527,0.492 -1.527,1.099l3.054,0Z" style="fill:#4d1d73;stroke:#e96396;stroke-width:1px;stroke-linecap:butt;stroke-miterlimit:1.41421;"/><g><path d="M60.512,90.436l3.115,0c-0.991,-0.223 -0.618,-0.758 -1.367,-1.681c-0.472,-0.581 -1.223,-0.594 -1.748,-2.106l0,3.787Zm-0.061,0l-3.055,0c0.992,-0.223 0.619,-0.758 1.367,-1.681c0.472,-0.581 1.224,-0.594 1.749,-2.106l-0.061,3.787Z" style="fill:#4d1d73;stroke:#e96396;stroke-width:1px;"/><path d="M60.512,87.748l0,-0.977" style="fill:#4d1d73;stroke:#e96396;stroke-width:0.3px;"/></g></g><g><rect x="46.645" y="90.436" width="6.231" height="6.598" style="fill:#4d1d73;stroke:#e96396;stroke-width:1px;stroke-linecap:butt;stroke-miterlimit:1.41421;"/><rect x="48.233" y="92.635" width="3.054" height="3.054" style="fill:#4d1d73;stroke:#e96396;stroke-width:1px;stroke-linecap:butt;stroke-miterlimit:1.41421;"/><path d="M51.288,92.635c0,-0.607 -0.684,-1.099 -1.528,-1.099c-0.843,0 -1.527,0.492 -1.527,1.099l3.055,0Z" style="fill:#4d1d73;stroke:#e96396;stroke-width:1px;stroke-linecap:butt;stroke-miterlimit:1.41421;"/><g><path d="M49.76,90.436l3.116,0c-0.992,-0.223 -0.619,-0.758 -1.367,-1.681c-0.472,-0.581 -1.224,-0.594 -1.749,-2.106l0,3.787Zm-0.061,0l-3.054,0c0.991,-0.223 0.618,-0.758 1.367,-1.681c0.472,-0.581 1.223,-0.594 1.748,-2.106l-0.061,3.787Z" style="fill:#4d1d73;stroke:#e96396;stroke-width:1px;"/><path d="M49.76,87.748l0,-0.977" style="fill:#4d1d73;stroke:#e96396;stroke-width:0.3px;"/></g></g></g><g><g><rect x="139.621" y="90.436" width="6.231" height="6.598" style="fill:#4d1d73;stroke:#e96396;stroke-width:1px;stroke-linecap:butt;stroke-miterlimit:1.41421;"/><rect x="141.209" y="92.635" width="3.054" height="3.054" style="fill:#4d1d73;stroke:#e96396;stroke-width:1px;stroke-linecap:butt;stroke-miterlimit:1.41421;"/><path d="M144.264,92.635c0,-0.607 -0.684,-1.099 -1.527,-1.099c-0.844,0 -1.528,0.492 -1.528,1.099l3.055,0Z" style="fill:#4d1d73;stroke:#e96396;stroke-width:1px;stroke-linecap:butt;stroke-miterlimit:1.41421;"/><g><path d="M142.737,90.436l3.115,0c-0.991,-0.223 -0.618,-0.758 -1.367,-1.681c-0.472,-0.581 -1.223,-0.594 -1.748,-2.106l0,3.787Zm-0.061,0l-3.055,0c0.992,-0.223 0.619,-0.758 1.367,-1.681c0.472,-0.581 1.223,-0.594 1.749,-2.106l-0.061,3.787Z" style="fill:#4d1d73;stroke:#e96396;stroke-width:1px;"/><path d="M142.737,87.748l0,-0.977" style="fill:#4d1d73;stroke:#e96396;stroke-width:0.3px;"/></g></g><g><rect x="150.373" y="90.436" width="6.231" height="6.598" style="fill:#4d1d73;stroke:#e96396;stroke-width:1px;stroke-linecap:butt;stroke-miterlimit:1.41421;"/><rect x="151.961" y="92.635" width="3.054" height="3.054" style="fill:#4d1d73;stroke:#e96396;stroke-width:1px;stroke-linecap:butt;stroke-miterlimit:1.41421;"/><path d="M155.015,92.635c0,-0.607 -0.683,-1.099 -1.527,-1.099c-0.843,0 -1.527,0.492 -1.527,1.099l3.054,0Z" style="fill:#4d1d73;stroke:#e96396;stroke-width:1px;stroke-linecap:butt;stroke-miterlimit:1.41421;"/><g><path d="M153.488,90.436l3.116,0c-0.992,-0.223 -0.619,-0.758 -1.367,-1.681c-0.472,-0.581 -1.224,-0.594 -1.749,-2.106l0,3.787Zm-0.061,0l-3.054,0c0.991,-0.223 0.618,-0.758 1.367,-1.681c0.472,-0.581 1.223,-0.594 1.748,-2.106l-0.061,3.787Z" style="fill:#4d1d73;stroke:#e96396;stroke-width:1px;"/><path d="M153.488,87.748l0,-0.977" style="fill:#4d1d73;stroke:#e96396;stroke-width:0.3px;"/></g></g><g><rect x="161.124" y="90.436" width="6.231" height="6.598" style="fill:#4d1d73;stroke:#e96396;stroke-width:1px;stroke-linecap:butt;stroke-miterlimit:1.41421;"/><rect x="162.712" y="92.635" width="3.054" height="3.054" style="fill:#4d1d73;stroke:#e96396;stroke-width:1px;stroke-linecap:butt;stroke-miterlimit:1.41421;"/><path d="M165.767,92.635c0,-0.607 -0.684,-1.099 -1.527,-1.099c-0.844,0 -1.528,0.492 -1.528,1.099l3.055,0Z" style="fill:#4d1d73;stroke:#e96396;stroke-width:1px;stroke-linecap:butt;stroke-miterlimit:1.41421;"/><g><path d="M164.24,90.436l3.115,0c-0.991,-0.223 -0.618,-0.758 -1.367,-1.681c-0.472,-0.581 -1.223,-0.594 -1.748,-2.106l0,3.787Zm-0.061,0l-3.055,0c0.992,-0.223 0.619,-0.758 1.367,-1.681c0.472,-0.581 1.224,-0.594 1.749,-2.106l-0.061,3.787Z" style="fill:#4d1d73;stroke:#e96396;stroke-width:1px;"/><path d="M164.24,87.748l0,-0.977" style="fill:#4d1d73;stroke:#e96396;stroke-width:0.3px;"/></g></g></g><g><path d="M107.183,0.514l0.917,10.019l-1.833,0l0.916,-10.019Z" style="fill:#4d1d73;stroke:#e96396;stroke-width:1px;stroke-linecap:butt;stroke-miterlimit:1.41421;"/><path d="M110.147,17.86c0.301,-0.974 0.459,-2.08 0.459,-3.205c0,-3.538 -1.534,-6.41 -3.423,-6.41c-1.889,0 -3.423,2.872 -3.423,6.41c0,1.125 0.159,2.231 0.459,3.205l5.928,0Z" style="fill:#4d1d73;stroke:#e96396;stroke-width:1px;stroke-linecap:butt;stroke-miterlimit:1.41421;"/><path d="M118.155,60.777c2.91,-3.54 4.545,-8.342 4.545,-13.348c0,-10.418 -6.953,-18.876 -15.517,-18.876c-8.563,0 -15.516,8.458 -15.516,18.876c0,5.006 1.635,9.808 4.545,13.348l21.943,0Z" style="fill:#4d1d73;stroke:#e96396;stroke-width:1px;stroke-linecap:butt;stroke-miterlimit:1.41421;"/><path d="M88.918,45.964l4.909,0c0.055,0 0.1,0.045 0.1,0.1l0,25.72l-5.009,0l0,-25.82Z" style="fill:#4d1d73;stroke:#e96396;stroke-width:1px;stroke-linecap:butt;stroke-miterlimit:1.41421;"/><rect x="103.76" y="12.854" width="6.846" height="9.53" style="fill:#4d1d73;stroke:#e96396;stroke-width:1px;stroke-linecap:butt;stroke-miterlimit:1.41421;"/><rect x="101.198" y="20.429" width="11.971" height="9.53" style="fill:#4d1d73;stroke:#e96396;stroke-width:1px;stroke-linecap:butt;stroke-miterlimit:1.41421;"/><path d="M120.317,46.064c0,-0.055 0.045,-0.1 0.1,-0.1l4.909,0l0,25.82l-5.009,0l0,-25.72Z" style="fill:#4d1d73;stroke:#e96396;stroke-width:1px;stroke-linecap:butt;stroke-miterlimit:1.41421;"/><path d="M123.462,38.144l1.864,7.82l-2.993,0l1.129,-7.82Z" style="fill:#4d1d73;stroke:#e96396;stroke-width:0.3px;"/><path d="M90.783,38.144l-1.865,7.82l2.993,0l-1.128,-7.82Z" style="fill:#4d1d73;stroke:#e96396;stroke-width:0.3px;"/><rect x="101.502" y="46.086" width="11.24" height="29.953" style="fill:#4d1d73;stroke:#e96396;stroke-width:0.3px;"/><rect x="99.914" y="45.475" width="14.417" height="7.819" style="fill:#4d1d73;stroke:#e96396;stroke-width:0.3px;"/><path d="M107.122,41.688l7.209,3.787l-14.417,0l7.208,-3.787Z" style="fill:#4d1d73;stroke:#e96396;stroke-width:0.3px;"/><path d="M120.317,51.34l-6.795,0c-0.43,0 -0.78,0.349 -0.78,0.78l0,19.664l7.575,0l0,-20.444Z" style="fill:#4d1d73;stroke:#e96396;stroke-width:0.6px;"/><path d="M101.502,52.11c0,-0.425 -0.345,-0.77 -0.771,-0.77l-6.804,0l0,20.444l7.575,0l0,-19.674Z" style="fill:#4d1d73;stroke:#e96396;stroke-width:0.6px;"/><circle cx="107.185" cy="52.134" r="4.582" style="fill:#4d1d73;stroke:#e96396;stroke-width:0.3px;"/></g><path d="M137.059,72.14c0,-0.197 -0.159,-0.356 -0.356,-0.356l-59.036,0c-0.196,0 -0.356,0.159 -0.356,0.356l0,17.441l59.748,0l0,-17.441Z" style="fill:#4d1d73;stroke:#e96396;stroke-width:0.3px;"/><g><g><path d="M88.918,70.052c-1.09,1.894 -2.62,1.641 -2.948,4.47c-0.625,5.393 -3.536,8.632 -4.871,10.905l0,4.154l7.819,0" style="fill:#4d1d73;stroke:#e96396;stroke-width:1px;"/><path d="M88.918,70.052c1.09,1.894 2.62,1.641 2.948,4.47c0.625,5.393 3.535,8.632 4.871,10.905l0,4.154l-7.819,0" style="fill:#4d1d73;stroke:#e96396;stroke-width:1px;"/><path d="M88.918,70.175l0,14.274" style="fill:#4d1d73;stroke:#e96396;stroke-width:0.6px;"/><g><rect x="86.413" y="84.083" width="5.009" height="5.498" style="fill:#4d1d73;stroke:#e96396;stroke-width:0.3px;"/><path d="M91.422,84.083c0,-1.417 -1.121,-2.566 -2.504,-2.566c-1.383,0 -2.505,1.149 -2.505,2.566l5.009,0Z" style="fill:#4d1d73;stroke:#e96396;stroke-width:0.3px;"/></g></g><g><path d="M107.185,70.052c-1.09,1.894 -2.62,1.641 -2.948,4.47c-0.625,5.393 -3.535,8.632 -4.871,10.905l0,4.154l7.819,0" style="fill:#4d1d73;stroke:#e96396;stroke-width:1px;"/><path d="M107.185,70.052c1.09,1.894 2.62,1.641 2.948,4.47c0.625,5.393 3.536,8.632 4.871,10.905l0,4.154l-7.819,0" style="fill:#4d1d73;stroke:#e96396;stroke-width:1px;"/><path d="M107.185,70.175l0,14.274" style="fill:#4d1d73;stroke:#e96396;stroke-width:0.6px;"/><g><rect x="104.681" y="84.083" width="5.009" height="5.498" style="fill:#4d1d73;stroke:#e96396;stroke-width:0.3px;"/><path d="M109.69,84.083c0,-1.417 -1.122,-2.566 -2.505,-2.566c-1.383,0 -2.504,1.149 -2.504,2.566l5.009,0Z" style="fill:#4d1d73;stroke:#e96396;stroke-width:0.3px;"/></g></g><g><path d="M125.452,70.052c-1.09,1.894 -2.62,1.641 -2.948,4.47c-0.625,5.393 -3.535,8.632 -4.871,10.905l0,4.154l7.819,0" style="fill:#4d1d73;stroke:#e96396;stroke-width:1px;"/><path d="M125.452,70.052c1.09,1.894 2.621,1.641 2.948,4.47c0.626,5.393 3.536,8.632 4.872,10.905l0,4.154l-7.82,0" style="fill:#4d1d73;stroke:#e96396;stroke-width:1px;"/><path d="M125.452,70.175l0,14.274" style="fill:#4d1d73;stroke:#e96396;stroke-width:0.6px;"/><g><rect x="122.822" y="84.083" width="5.009" height="5.498" style="fill:#4d1d73;stroke:#e96396;stroke-width:0.3px;"/><path d="M127.831,84.083c0,-1.417 -1.121,-2.566 -2.505,-2.566c-1.383,0 -2.504,1.149 -2.504,2.566l5.009,0Z" style="fill:#4d1d73;stroke:#e96396;stroke-width:0.3px;"/></g></g></g></g></svg>