<svg width="0" height="0" class="hidden">
  <symbol xmlns="http://www.w3.org/2000/svg" viewBox="0 0 24 24" id="github">
    <path d="M12 2C6.475 2 2 6.475 2 12a9.994 9.994 0 0 0 6.838 9.488c.5.087.687-.213.687-.476 0-.237-.013-1.024-.013-1.862-2.512.463-3.162-.612-3.362-1.175-.113-.288-.6-1.175-1.025-1.413-.35-.187-.85-.65-.013-.662.788-.013 1.35.725 1.538 1.025.9 1.512 2.338 1.087 2.912.825.088-.65.35-1.087.638-1.337-2.225-.25-4.55-1.113-4.55-4.938 0-1.088.387-1.987 1.025-2.688-.1-.25-.45-1.275.1-2.65 0 0 .837-.262 2.75 1.026a9.28 9.28 0 0 1 2.5-.338c.85 0 1.7.112 2.5.337 1.912-1.3 2.75-1.024 2.75-1.024.55 1.375.2 2.4.1 2.65.637.7 1.025 1.587 1.025 2.687 0 3.838-2.337 4.688-4.562 4.938.362.312.675.912.675 1.85 0 1.337-.013 2.412-.013 2.75 0 .262.188.574.688.474A10.016 10.016 0 0 0 22 12c0-5.525-4.475-10-10-10z"></path>
  </symbol>
  <symbol xmlns="http://www.w3.org/2000/svg" viewBox="0 0 24 24" id="slack">
    <path d="M6.527 14.514A1.973 1.973 0 0 1 4.56 16.48a1.973 1.973 0 0 1-1.967-1.967c0-1.083.884-1.968 1.967-1.968h1.968v1.968zm.992 0c0-1.083.884-1.968 1.967-1.968 1.083 0 1.968.885 1.968 1.968v4.927a1.973 1.973 0 0 1-1.968 1.967 1.973 1.973 0 0 1-1.967-1.967v-4.927zm1.967-7.987A1.973 1.973 0 0 1 7.52 4.56c0-1.083.884-1.967 1.967-1.967 1.083 0 1.968.884 1.968 1.967v1.968H9.486zm0 .992c1.083 0 1.968.884 1.968 1.967a1.973 1.973 0 0 1-1.968 1.968H4.56a1.973 1.973 0 0 1-1.967-1.968c0-1.083.884-1.967 1.967-1.967h4.927zm7.987 1.967c0-1.083.885-1.967 1.968-1.967s1.967.884 1.967 1.967a1.973 1.973 0 0 1-1.967 1.968h-1.968V9.486zm-.992 0a1.973 1.973 0 0 1-1.967 1.968 1.973 1.973 0 0 1-1.968-1.968V4.56c0-1.083.885-1.967 1.968-1.967s1.967.884 1.967 1.967v4.927zm-1.967 7.987c1.083 0 1.967.885 1.967 1.968a1.973 1.973 0 0 1-1.967 1.967 1.973 1.973 0 0 1-1.968-1.967v-1.968h1.968zm0-.992a1.973 1.973 0 0 1-1.968-1.967c0-1.083.885-1.968 1.968-1.968h4.927c1.083 0 1.967.885 1.967 1.968a1.973 1.973 0 0 1-1.967 1.967h-4.927z"></path>
  </symbol>
  <symbol xmlns="http://www.w3.org/2000/svg" viewBox="0 0 24 24" id="twitter">
    <path d="M22.162 5.656a8.384 8.384 0 0 1-2.402.658A4.196 4.196 0 0 0 21.6 4c-.82.488-1.719.83-2.656 1.015a4.182 4.182 0 0 0-7.126 3.814 11.874 11.874 0 0 1-8.62-4.37 4.168 4.168 0 0 0-.566 2.103c0 1.45.738 2.731 1.86 3.481a4.168 4.168 0 0 1-1.894-.523v.052a4.185 4.185 0 0 0 3.355 4.101 4.21 4.21 0 0 1-1.89.072A4.185 4.185 0 0 0 7.97 16.65a8.394 8.394 0 0 1-6.191 1.732 11.83 11.83 0 0 0 6.41 1.88c7.693 0 11.9-6.373 11.9-11.9 0-.18-.005-.362-.013-.54a8.496 8.496 0 0 0 2.087-2.165z"></path>
  </symbol>
  <symbol xmlns="http://www.w3.org/2000/svg" viewBox="0 0 24 24" id="meetup">
    <g transform="matrix(1,0,0,1,-4,-2)">
        <g transform="matrix(1,0,0,1,-216,-2)">
            <g transform="matrix(0.545455,0,0,0.6,220,4)">
                <g id="meetup">
                    <path id="Shape" d="M37.945,25.713C37.948,29.352 35.202,32.487 31.467,33.103C30.997,33.18 30.522,33.226 30.045,33.222C29.884,33.22 29.821,33.281 29.77,33.422C29.024,35.464 27.536,36.682 25.288,36.989C23.801,37.192 22.452,36.812 21.269,35.925C21.104,35.801 21.003,35.799 20.831,35.916C19.448,36.86 17.897,37.278 16.203,37.181C12.897,36.99 10.116,34.58 9.595,31.472C9.56,31.257 9.522,31.04 9.518,30.824C9.515,30.644 9.443,30.574 9.263,30.54C8.262,30.354 7.354,29.961 6.553,29.363C5.078,28.261 4.193,26.823 3.987,25.044C3.753,23.008 4.412,21.248 5.913,19.781C6.034,19.663 6.042,19.581 5.959,19.442C5.382,18.481 5.108,17.44 5.153,16.336C5.264,13.58 7.273,11.304 10.069,10.74C10.392,10.675 10.562,10.554 10.704,10.261C12.083,7.427 14.398,5.703 17.611,5.135C19.866,4.735 21.993,5.163 23.968,6.271C24.133,6.364 24.272,6.372 24.452,6.322C27.588,5.454 30.366,6.085 32.725,8.225C34.12,9.49 34.884,11.091 35.11,12.918C35.16,13.317 35.182,13.72 35.15,14.122C35.138,14.274 35.187,14.337 35.338,14.39C36.752,14.89 37.726,15.821 38.153,17.197C38.684,18.91 38.238,20.412 36.896,21.661C36.78,21.769 36.805,21.836 36.87,21.944C37.579,23.109 37.947,24.364 37.945,25.713ZM23.954,25.129C23.955,26.677 24.997,28.046 26.474,28.511C27.215,28.744 27.978,28.855 28.753,28.887C29.307,28.91 29.859,28.873 30.371,28.63C30.773,28.439 30.962,28.122 30.944,27.701C30.926,27.277 30.727,26.959 30.301,26.79C30.153,26.732 30.003,26.684 29.846,26.658C29.377,26.578 28.906,26.511 28.439,26.423C27.668,26.276 27.345,25.887 27.335,25.144C27.326,24.486 27.513,23.866 27.725,23.253C28.113,22.13 28.636,21.059 29.137,19.98C29.621,18.938 30.128,17.904 30.47,16.807C30.658,16.204 30.748,15.6 30.577,14.976C30.316,14.03 29.722,13.396 28.697,13.214C27.759,13.047 26.825,13.028 25.977,13.562C25.695,13.739 25.424,13.696 25.179,13.49C24.992,13.333 24.814,13.167 24.631,13.006C23.765,12.244 22.621,12.207 21.692,12.903C21.317,13.184 21.002,13.532 20.594,13.776C20.23,13.994 19.863,14.056 19.461,13.851C19.077,13.656 18.679,13.484 18.283,13.312C17.881,13.139 17.492,12.926 17.04,12.889C15.611,12.773 14.115,13.584 13.484,14.816C13.204,15.361 12.976,15.927 12.759,16.498C11.759,19.133 10.944,21.825 10.101,24.508C9.723,25.709 10.169,26.89 11.234,27.539C12.066,28.044 12.976,28.169 13.918,27.899C14.682,27.68 15.1,27.093 15.392,26.435C16.363,24.249 17.238,22.027 18.164,19.824C18.419,19.218 18.665,18.61 18.936,18.01C19.208,17.405 19.993,17.199 20.458,17.6C20.742,17.845 20.817,18.171 20.789,18.52C20.758,18.893 20.607,19.237 20.465,19.579C19.862,21.032 19.249,22.481 18.644,23.932C18.522,24.226 18.389,24.517 18.335,24.832C18.242,25.374 18.467,25.853 18.931,26.044C19.404,26.239 19.895,26.271 20.386,26.101C20.957,25.904 21.298,25.478 21.561,24.985C22.464,23.293 23.36,21.597 24.262,19.905C24.679,19.123 25.103,18.345 25.529,17.568C25.688,17.28 25.873,17.007 26.169,16.828C26.435,16.667 26.723,16.655 26.996,16.802C27.263,16.944 27.281,17.205 27.27,17.462C27.264,17.6 27.223,17.735 27.168,17.864C27.051,18.131 26.941,18.403 26.812,18.665C26.061,20.171 25.299,21.672 24.555,23.182C24.242,23.819 23.915,24.459 23.954,25.129ZM34.482,36.232C34.484,35.233 33.606,34.397 32.55,34.394C31.468,34.391 30.59,35.217 30.585,36.242C30.581,37.244 31.474,38.094 32.53,38.095C33.601,38.096 34.481,37.256 34.482,36.232ZM1.838,20.918C2.856,20.92 3.713,20.108 3.709,19.145C3.705,18.18 2.866,17.381 1.856,17.378C0.821,17.375 -0.001,18.159 0,19.148C0.001,20.126 0.82,20.916 1.838,20.918ZM24.643,1.111C23.62,1.105 22.785,1.886 22.78,2.854C22.773,3.821 23.605,4.615 24.623,4.616C25.638,4.616 26.452,3.841 26.454,2.873C26.457,1.899 25.651,1.115 24.643,1.111ZM39.714,12.067C39.709,11.265 38.992,10.582 38.147,10.577C37.285,10.571 36.555,11.266 36.561,12.087C36.567,12.905 37.263,13.562 38.126,13.563C39.016,13.565 39.719,12.902 39.714,12.067ZM7.426,7.782C7.426,8.536 8.04,9.127 8.825,9.128C9.62,9.129 10.237,8.535 10.234,7.77C10.231,7.029 9.615,6.449 8.833,6.451C8.029,6.452 7.426,7.023 7.426,7.782ZM22.126,38.864C22.133,38.237 21.592,37.72 20.926,37.718C20.243,37.716 19.707,38.221 19.709,38.863C19.711,39.498 20.244,40 20.915,40C21.586,40.001 22.121,39.499 22.126,38.864ZM40.897,21.03C40.258,21.025 39.704,21.554 39.709,22.164C39.714,22.766 40.241,23.26 40.879,23.261C41.548,23.263 42.05,22.793 42.051,22.162C42.053,21.538 41.539,21.034 40.897,21.03ZM12.823,0C12.259,-0.002 11.824,0.409 11.824,0.944C11.824,1.475 12.264,1.889 12.827,1.886C13.373,1.883 13.801,1.468 13.801,0.94C13.801,0.407 13.38,0.003 12.823,0ZM43.128,15.962C42.668,15.958 42.252,16.35 42.246,16.794C42.24,17.254 42.641,17.636 43.13,17.637C43.616,17.639 43.997,17.279 44,16.813C44.005,16.345 43.618,15.968 43.128,15.962ZM8.342,32.514C8.344,32.069 7.942,31.686 7.469,31.682C6.989,31.678 6.594,32.063 6.597,32.532C6.601,32.99 6.991,33.352 7.476,33.349C7.952,33.346 8.341,32.972 8.342,32.514Z"/>
                </g>
            </g>
        </g>
    </g>
  </symbol>
</svg>
