<?xml version="1.0" encoding="UTF-8" standalone="no"?><!DOCTYPE svg PUBLIC "-//W3C//DTD SVG 1.1//EN" "http://www.w3.org/Graphics/SVG/1.1/DTD/svg11.dtd"><svg width="100%" height="100%" viewBox="0 0 673 295" version="1.1" xmlns="http://www.w3.org/2000/svg" xmlns:xlink="http://www.w3.org/1999/xlink" xml:space="preserve" xmlns:serif="http://www.serif.com/" style="fill-rule:evenodd;clip-rule:evenodd;stroke-linejoin:round;stroke-miterlimit:1.41421;"><g><g><path d="M584.5,122.391c0,-2.252 -1.828,-4.08 -4.08,-4.08l-486.715,0c-1.769,0 -3.205,1.436 -3.205,3.205l0,172.795l494,0l0,-171.92Z" style="fill:#4d1d73;"/><clipPath id="_clip1"><path d="M584.5,122.391c0,-2.252 -1.828,-4.08 -4.08,-4.08l-486.715,0c-1.769,0 -3.205,1.436 -3.205,3.205l0,172.795l494,0l0,-171.92Z"/></clipPath><g clip-path="url(#_clip1)"><path d="M584.5,118.985c0,-0.372 -0.302,-0.674 -0.675,-0.674l-10.798,0c-0.372,0 -0.675,0.302 -0.675,0.674l0,91.651c0,0.373 0.303,0.675 0.675,0.675l10.798,0c0.373,0 0.675,-0.302 0.675,-0.675l0,-91.651Z" style="fill:#4d1d73;stroke:#e96396;stroke-width:1px;"/><path d="M102.5,118.977c0,-0.368 -0.299,-0.666 -0.666,-0.666l-10.668,0c-0.367,0 -0.666,0.298 -0.666,0.666l0,82.667c0,0.368 0.299,0.667 0.666,0.667l10.668,0c0.367,0 0.666,-0.299 0.666,-0.667l0,-82.667Z" style="fill:#4d1d73;stroke:#e96396;stroke-width:1px;"/><path d="M571.908,126.311c0.245,0 0.444,-0.199 0.444,-0.444l0,-7.112c0,-0.245 -0.199,-0.444 -0.444,-0.444l-468.816,0c-0.245,0 -0.444,0.199 -0.444,0.444l0,7.112c0,0.245 0.199,0.444 0.444,0.444l468.816,0Z" style="fill:#4d1d73;stroke:#e96396;stroke-width:1px;"/></g><path d="M584.5,122.391c0,-2.252 -1.828,-4.08 -4.08,-4.08l-486.715,0c-1.769,0 -3.205,1.436 -3.205,3.205l0,172.795l494,0l0,-171.92Z" style="fill:none;stroke:#e96396;stroke-width:1px;"/><rect x="310.377" y="15.311" width="54" height="103" style="fill:#4d1d73;stroke:#e96396;stroke-width:1px;"/><path d="M363.5,9.755c0,-0.245 -0.199,-0.444 -0.444,-0.444l-7.112,0c-0.245,0 -0.444,0.199 -0.444,0.444l0,108.112c0,0.245 0.199,0.444 0.444,0.444l7.112,0c0.245,0 0.444,-0.199 0.444,-0.444l0,-108.112Z" style="fill:#4d1d73;stroke:#e96396;stroke-width:1px;"/><path d="M317.5,9.755c0,-0.245 -0.199,-0.444 -0.444,-0.444l-7.112,0c-0.245,0 -0.444,0.199 -0.444,0.444l0,108.112c0,0.245 0.199,0.444 0.444,0.444l7.112,0c0.245,0 0.444,-0.199 0.444,-0.444l0,-108.112Z" style="fill:#4d1d73;stroke:#e96396;stroke-width:1px;"/><path d="M366.877,2.088c0,-0.429 -0.348,-0.777 -0.777,-0.777l-58.445,0c-0.429,0 -0.778,0.348 -0.778,0.777l0,12.445c0,0.43 0.349,0.778 0.778,0.778l58.445,0c0.429,0 0.777,-0.348 0.777,-0.778l0,-12.445Z" style="fill:#4d1d73;stroke:#e96396;stroke-width:1px;"/><path d="M101.255,202.311l-98.433,0c-0.865,0 -1.567,0.702 -1.567,1.567l0,88.593c0,1.015 0.824,1.84 1.84,1.84l98.16,0l0,-92Z" style="fill:#4d1d73;"/><clipPath id="_clip2"><path d="M101.255,202.311l-98.433,0c-0.865,0 -1.567,0.702 -1.567,1.567l0,88.593c0,1.015 0.824,1.84 1.84,1.84l98.16,0l0,-92Z"/></clipPath><g clip-path="url(#_clip2)"><path d="M7.255,202.644c0,-0.184 -0.149,-0.333 -0.333,-0.333l-5.334,0c-0.184,0 -0.333,0.149 -0.333,0.333l0,91.334c0,0.184 0.149,0.333 0.333,0.333l5.334,0c0.184,0 0.333,-0.149 0.333,-0.333l0,-91.334Z" style="fill:#4d1d73;stroke:#e96396;stroke-width:1px;"/></g><path d="M101.255,202.311l-98.433,0c-0.865,0 -1.567,0.702 -1.567,1.567l0,88.593c0,1.015 0.824,1.84 1.84,1.84l98.16,0l0,-92Z" style="fill:none;stroke:#e96396;stroke-width:1px;"/><path d="M672.5,203.876c0,-0.864 -0.701,-1.565 -1.565,-1.565l-98.435,0l0,92l98.16,0c1.016,0 1.84,-0.825 1.84,-1.84l0,-88.595Z" style="fill:#4d1d73;"/><clipPath id="_clip3"><path d="M672.5,203.876c0,-0.864 -0.701,-1.565 -1.565,-1.565l-98.435,0l0,92l98.16,0c1.016,0 1.84,-0.825 1.84,-1.84l0,-88.595Z"/></clipPath><g clip-path="url(#_clip3)"><path d="M672.5,202.644c0,-0.184 -0.149,-0.333 -0.333,-0.333l-5.334,0c-0.184,0 -0.333,0.149 -0.333,0.333l0,91.334c0,0.184 0.149,0.333 0.333,0.333l5.334,0c0.184,0 0.333,-0.149 0.333,-0.333l0,-91.334Z" style="fill:#4d1d73;stroke:#e96396;stroke-width:1px;"/></g><path d="M672.5,203.876c0,-0.864 -0.701,-1.565 -1.565,-1.565l-98.435,0l0,92l98.16,0c1.016,0 1.84,-0.825 1.84,-1.84l0,-88.595Z" style="fill:none;stroke:#e96396;stroke-width:1px;"/><path d="M584.143,213.174c0.197,0 0.357,-0.16 0.357,-0.358l0,-5.717c0,-0.197 -0.16,-0.357 -0.357,-0.357l-493.286,0c-0.197,0 -0.357,0.16 -0.357,0.357l0,5.717c0,0.198 0.16,0.358 0.357,0.358l493.286,0Z" style="fill:#4d1d73;stroke:#e96396;stroke-width:1px;"/><rect x="572.5" y="200.311" width="12" height="6.431" style="fill:#4d1d73;stroke:#e96396;stroke-width:1px;"/><rect x="90.5" y="200.311" width="12" height="6.431" style="fill:#4d1d73;stroke:#e96396;stroke-width:1px;"/><g><rect x="102.877" y="101.311" width="42" height="17" style="fill:#4d1d73;stroke:#e96396;stroke-width:1px;"/><path d="M147.255,100.674c0,0.352 -0.285,0.637 -0.637,0.637l-45.481,0c-0.352,0 -0.637,-0.285 -0.637,-0.637l0,-11.727c0,-0.351 0.285,-0.636 0.637,-0.636l45.481,0c0.352,0 0.637,0.285 0.637,0.636l0,11.727Z" style="fill:#4d1d73;stroke:#e96396;stroke-width:1px;"/><path d="M110.877,101.755c0,-0.245 -0.199,-0.444 -0.444,-0.444l-7.111,0c-0.245,0 -0.445,0.199 -0.445,0.444l0,16.112c0,0.245 0.2,0.444 0.445,0.444l7.111,0c0.245,0 0.444,-0.199 0.444,-0.444l0,-16.112Z" style="fill:#4d1d73;stroke:#e96396;stroke-width:1px;"/><path d="M144.877,101.755c0,-0.245 -0.199,-0.444 -0.444,-0.444l-7.111,0c-0.245,0 -0.445,0.199 -0.445,0.444l0,16.112c0,0.245 0.2,0.444 0.445,0.444l7.111,0c0.245,0 0.444,-0.199 0.444,-0.444l0,-16.112Z" style="fill:#4d1d73;stroke:#e96396;stroke-width:1px;"/></g><g><rect x="530.877" y="98.311" width="42" height="20" style="fill:#4d1d73;"/><clipPath id="_clip4"><rect x="530.877" y="98.311" width="42" height="20"/></clipPath><g clip-path="url(#_clip4)"><path d="M538.877,98.755c0,-0.245 -0.199,-0.444 -0.444,-0.444l-7.111,0c-0.245,0 -0.445,0.199 -0.445,0.444l0,19.112c0,0.245 0.2,0.444 0.445,0.444l7.111,0c0.245,0 0.444,-0.199 0.444,-0.444l0,-19.112Z" style="fill:#4d1d73;stroke:#e96396;stroke-width:1px;"/><path d="M572.877,98.755c0,-0.245 -0.199,-0.444 -0.444,-0.444l-7.111,0c-0.245,0 -0.445,0.199 -0.445,0.444l0,19.112c0,0.245 0.2,0.444 0.445,0.444l7.111,0c0.245,0 0.444,-0.199 0.444,-0.444l0,-19.112Z" style="fill:#4d1d73;stroke:#e96396;stroke-width:1px;"/></g><rect x="530.877" y="98.311" width="42" height="20" style="fill:none;stroke:#e96396;stroke-width:1px;"/><g><path d="M551.877,49.311l21,49l-42,0l21,-49Z" style="fill:#4d1d73;stroke:#e96396;stroke-width:1px;"/><path d="M551.877,49.311l11,26l-22,0l11,-26Z" style="fill:#4d1d73;stroke:#e96396;stroke-width:1px;"/></g><path d="M575.255,103.873c0,0.242 -0.196,0.438 -0.438,0.438l-45.879,0c-0.242,0 -0.438,-0.196 -0.438,-0.438l0,-5.124c0,-0.242 0.196,-0.438 0.438,-0.438l45.879,0c0.242,0 0.438,0.196 0.438,0.438l0,5.124Z" style="fill:#4d1d73;stroke:#e96396;stroke-width:1px;"/></g><g><path d="M280.189,251.311c0,-10.494 -8.507,-19 -19,-19c-10.494,0 -19,8.506 -19,19l38,0Z" style="fill:#4d1d73;stroke:#e96396;stroke-width:1px;"/><rect x="242.189" y="251.311" width="38" height="43" style="fill:#4d1d73;stroke:#e96396;stroke-width:1px;"/></g><g><path d="M356.377,251.311c0,-10.494 -8.506,-19 -19,-19c-10.493,0 -19,8.506 -19,19l38,0Z" style="fill:#4d1d73;stroke:#e96396;stroke-width:1px;"/><rect x="318.377" y="251.311" width="38" height="43" style="fill:#4d1d73;stroke:#e96396;stroke-width:1px;"/></g><g><path d="M431.566,251.311c0,-10.494 -8.506,-19 -19,-19c-10.493,0 -19,8.506 -19,19l38,0Z" style="fill:#4d1d73;stroke:#e96396;stroke-width:1px;"/><rect x="393.566" y="251.311" width="38" height="43" style="fill:#4d1d73;stroke:#e96396;stroke-width:1px;"/></g><g><path d="M344.377,65.795c0,-4.686 -3.134,-8.484 -7,-8.484c-3.866,0 -7,3.798 -7,8.484l14,0Z" style="fill:#4d1d73;stroke:#e96396;stroke-width:1px;"/><path d="M344.377,65.795l-14,0l0,35.249c0,0.147 0.12,0.267 0.267,0.267l13.417,0c0.175,0 0.316,-0.142 0.316,-0.316l0,-35.2Z" style="fill:#4d1d73;stroke:#e96396;stroke-width:1px;"/><circle cx="337.377" cy="64.311" r="4" style="fill:#4d1d73;stroke:#e96396;stroke-width:1px;"/></g></g><g><g><path d="M350.248,183.182c0,-7.109 -5.762,-12.871 -12.871,-12.871c-7.108,0 -12.871,5.762 -12.871,12.871l25.742,0Z" style="fill:#4d1d73;stroke:#e96396;stroke-width:1px;"/><rect x="324.506" y="183.182" width="25.742" height="29.129" style="fill:#4d1d73;stroke:#e96396;stroke-width:1px;"/></g><g><path d="M302.5,185.504c0,-5.077 -4.116,-9.193 -9.194,-9.193c-5.077,0 -9.193,4.116 -9.193,9.193l18.387,0Z" style="fill:#4d1d73;stroke:#e96396;stroke-width:1px;"/><rect x="284.113" y="185.504" width="18.387" height="20.806" style="fill:#4d1d73;stroke:#e96396;stroke-width:1px;"/></g><g><path d="M274.694,185.504c0,-5.077 -4.117,-9.193 -9.194,-9.193c-5.077,0 -9.194,4.116 -9.194,9.193l18.388,0Z" style="fill:#4d1d73;stroke:#e96396;stroke-width:1px;"/><rect x="256.306" y="185.504" width="18.387" height="20.806" style="fill:#4d1d73;stroke:#e96396;stroke-width:1px;"/></g><g><path d="M246.887,185.504c0,-5.077 -4.116,-9.193 -9.193,-9.193c-5.078,0 -9.194,4.116 -9.194,9.193l18.387,0Z" style="fill:#4d1d73;stroke:#e96396;stroke-width:1px;"/><rect x="228.5" y="185.504" width="18.387" height="20.806" style="fill:#4d1d73;stroke:#e96396;stroke-width:1px;"/><rect x="228.5" y="185.504" width="18.387" height="20.806" style="fill:#4d1d73;stroke:#e96396;stroke-width:1px;"/></g><g><path d="M204.5,185.504c0,-5.077 -4.116,-9.193 -9.194,-9.193c-5.077,0 -9.193,4.116 -9.193,9.193l18.387,0Z" style="fill:#4d1d73;stroke:#e96396;stroke-width:1px;"/><rect x="186.113" y="185.504" width="18.387" height="20.806" style="fill:#4d1d73;stroke:#e96396;stroke-width:1px;"/><rect x="186.113" y="185.504" width="18.387" height="20.806" style="fill:#4d1d73;stroke:#e96396;stroke-width:1px;"/></g><g><path d="M132.694,185.504c0,-5.077 -4.117,-9.193 -9.194,-9.193c-5.077,0 -9.194,4.116 -9.194,9.193l18.388,0Z" style="fill:#4d1d73;stroke:#e96396;stroke-width:1px;"/><rect x="114.306" y="185.504" width="18.387" height="20.806" style="fill:#4d1d73;stroke:#e96396;stroke-width:1px;"/><rect x="114.306" y="185.504" width="18.387" height="20.806" style="fill:#4d1d73;stroke:#e96396;stroke-width:1px;"/></g><g><path d="M560.694,185.504c0,-5.077 -4.117,-9.193 -9.194,-9.193c-5.077,0 -9.194,4.116 -9.194,9.193l18.388,0Z" style="fill:#4d1d73;stroke:#e96396;stroke-width:1px;"/><rect x="542.306" y="185.504" width="18.387" height="20.806" style="fill:#4d1d73;stroke:#e96396;stroke-width:1px;"/></g><g><path d="M372.255,185.504c0,-5.077 4.116,-9.193 9.193,-9.193c5.078,0 9.194,4.116 9.194,9.193l-18.387,0Z" style="fill:#4d1d73;stroke:#e96396;stroke-width:1px;"/><rect x="372.255" y="185.504" width="18.387" height="20.806" style="fill:#4d1d73;stroke:#e96396;stroke-width:1px;"/></g><g><path d="M399.255,185.504c0,-5.077 4.116,-9.193 9.193,-9.193c5.078,0 9.194,4.116 9.194,9.193l-18.387,0Z" style="fill:#4d1d73;stroke:#e96396;stroke-width:1px;"/><rect x="399.255" y="185.504" width="18.387" height="20.806" style="fill:#4d1d73;stroke:#e96396;stroke-width:1px;"/></g><g><path d="M427.255,185.504c0,-5.077 4.116,-9.193 9.193,-9.193c5.078,0 9.194,4.116 9.194,9.193l-18.387,0Z" style="fill:#4d1d73;stroke:#e96396;stroke-width:1px;"/><rect x="427.255" y="185.504" width="18.387" height="20.806" style="fill:#4d1d73;stroke:#e96396;stroke-width:1px;"/><rect x="427.255" y="185.504" width="18.387" height="20.806" style="fill:#4d1d73;stroke:#e96396;stroke-width:1px;"/></g><g><path d="M470.255,185.504c0,-5.077 4.116,-9.193 9.193,-9.193c5.078,0 9.194,4.116 9.194,9.193l-18.387,0Z" style="fill:#4d1d73;stroke:#e96396;stroke-width:1px;"/><rect x="470.255" y="185.504" width="18.387" height="20.806" style="fill:#4d1d73;stroke:#e96396;stroke-width:1px;"/><rect x="470.255" y="185.504" width="18.387" height="20.806" style="fill:#4d1d73;stroke:#e96396;stroke-width:1px;"/></g></g><g><g><path d="M138.694,238.504c0,-5.077 -4.117,-9.193 -9.194,-9.193c-5.077,0 -9.194,4.116 -9.194,9.193l18.388,0Z" style="fill:#4d1d73;stroke:#e96396;stroke-width:1px;"/><rect x="120.306" y="238.504" width="18.387" height="20.806" style="fill:#4d1d73;stroke:#e96396;stroke-width:1px;"/></g><g><path d="M96.071,238.504c0,-5.077 -4.116,-9.193 -9.194,-9.193c-5.077,0 -9.193,4.116 -9.193,9.193l18.387,0Z" style="fill:#4d1d73;stroke:#e96396;stroke-width:1px;"/><rect x="77.684" y="238.504" width="18.387" height="20.806" style="fill:#4d1d73;stroke:#e96396;stroke-width:1px;"/><rect x="77.684" y="238.504" width="18.387" height="20.806" style="fill:#4d1d73;stroke:#e96396;stroke-width:1px;"/></g><g><path d="M75.071,238.504c0,-5.077 -4.116,-9.193 -9.194,-9.193c-5.077,0 -9.193,4.116 -9.193,9.193l18.387,0Z" style="fill:#4d1d73;stroke:#e96396;stroke-width:1px;"/><rect x="56.684" y="238.504" width="18.387" height="20.806" style="fill:#4d1d73;stroke:#e96396;stroke-width:1px;"/><rect x="56.684" y="238.504" width="18.387" height="20.806" style="fill:#4d1d73;stroke:#e96396;stroke-width:1px;"/></g><g><path d="M54.071,238.504c0,-5.077 -4.116,-9.193 -9.194,-9.193c-5.077,0 -9.193,4.116 -9.193,9.193l18.387,0Z" style="fill:#4d1d73;stroke:#e96396;stroke-width:1px;"/><rect x="35.684" y="238.504" width="18.387" height="20.806" style="fill:#4d1d73;stroke:#e96396;stroke-width:1px;"/><rect x="35.684" y="238.504" width="18.387" height="20.806" style="fill:#4d1d73;stroke:#e96396;stroke-width:1px;"/></g><g><path d="M33.071,238.504c0,-5.077 -4.116,-9.193 -9.194,-9.193c-5.077,0 -9.193,4.116 -9.193,9.193l18.387,0Z" style="fill:#4d1d73;stroke:#e96396;stroke-width:1px;"/><rect x="14.684" y="238.504" width="18.387" height="20.806" style="fill:#4d1d73;stroke:#e96396;stroke-width:1px;"/></g><g><path d="M560.694,236.504c0,-5.077 -4.117,-9.193 -9.194,-9.193c-5.077,0 -9.194,4.116 -9.194,9.193l18.388,0Z" style="fill:#4d1d73;stroke:#e96396;stroke-width:1px;"/><rect x="542.306" y="236.504" width="18.387" height="20.806" style="fill:#4d1d73;stroke:#e96396;stroke-width:1px;"/></g><g><path d="M597.071,236.504c0,-5.077 -4.116,-9.193 -9.194,-9.193c-5.077,0 -9.193,4.116 -9.193,9.193l18.387,0Z" style="fill:#4d1d73;stroke:#e96396;stroke-width:1px;"/><rect x="578.684" y="236.504" width="18.387" height="20.806" style="fill:#4d1d73;stroke:#e96396;stroke-width:1px;"/></g><g><path d="M618.071,236.504c0,-5.077 -4.116,-9.193 -9.194,-9.193c-5.077,0 -9.193,4.116 -9.193,9.193l18.387,0Z" style="fill:#4d1d73;stroke:#e96396;stroke-width:1px;"/><rect x="599.684" y="236.504" width="18.387" height="20.806" style="fill:#4d1d73;stroke:#e96396;stroke-width:1px;"/></g><g><path d="M639.071,236.504c0,-5.077 -4.116,-9.193 -9.194,-9.193c-5.077,0 -9.193,4.116 -9.193,9.193l18.387,0Z" style="fill:#4d1d73;stroke:#e96396;stroke-width:1px;"/><rect x="620.684" y="236.504" width="18.387" height="20.806" style="fill:#4d1d73;stroke:#e96396;stroke-width:1px;"/></g><g><path d="M660.071,236.504c0,-5.077 -4.116,-9.193 -9.194,-9.193c-5.077,0 -9.193,4.116 -9.193,9.193l18.387,0Z" style="fill:#4d1d73;stroke:#e96396;stroke-width:1px;"/><rect x="641.684" y="236.504" width="18.387" height="20.806" style="fill:#4d1d73;stroke:#e96396;stroke-width:1px;"/></g></g><g><g><g><path d="M114.769,140.58c0,-1.806 -1.464,-3.269 -3.269,-3.269c-1.805,0 -3.269,1.463 -3.269,3.269l6.538,0Z" style="fill:#4d1d73;stroke:#e96396;stroke-width:1px;"/><rect x="108.231" y="140.58" width="6.538" height="11.731" style="fill:#4d1d73;stroke:#e96396;stroke-width:1px;"/><rect x="108.231" y="140.58" width="6.538" height="11.731" style="fill:#4d1d73;stroke:#e96396;stroke-width:1px;"/></g><g><path d="M123.769,140.58c0,-1.806 -1.464,-3.269 -3.269,-3.269c-1.805,0 -3.269,1.463 -3.269,3.269l6.538,0Z" style="fill:#4d1d73;stroke:#e96396;stroke-width:1px;"/><rect x="117.231" y="140.58" width="6.538" height="11.731" style="fill:#4d1d73;stroke:#e96396;stroke-width:1px;"/><rect x="117.231" y="140.58" width="6.538" height="11.731" style="fill:#4d1d73;stroke:#e96396;stroke-width:1px;"/></g><g><path d="M132.769,140.58c0,-1.806 -1.464,-3.269 -3.269,-3.269c-1.805,0 -3.269,1.463 -3.269,3.269l6.538,0Z" style="fill:#4d1d73;stroke:#e96396;stroke-width:1px;"/><rect x="126.231" y="140.58" width="6.538" height="11.731" style="fill:#4d1d73;stroke:#e96396;stroke-width:1px;"/><rect x="126.231" y="140.58" width="6.538" height="11.731" style="fill:#4d1d73;stroke:#e96396;stroke-width:1px;"/></g><g><path d="M141.769,140.58c0,-1.806 -1.464,-3.269 -3.269,-3.269c-1.805,0 -3.269,1.463 -3.269,3.269l6.538,0Z" style="fill:#4d1d73;stroke:#e96396;stroke-width:1px;"/><rect x="135.231" y="140.58" width="6.538" height="11.731" style="fill:#4d1d73;stroke:#e96396;stroke-width:1px;"/><rect x="135.231" y="140.58" width="6.538" height="11.731" style="fill:#4d1d73;stroke:#e96396;stroke-width:1px;"/></g><g><path d="M150.769,140.58c0,-1.806 -1.464,-3.269 -3.269,-3.269c-1.805,0 -3.269,1.463 -3.269,3.269l6.538,0Z" style="fill:#4d1d73;stroke:#e96396;stroke-width:1px;"/><rect x="144.231" y="140.58" width="6.538" height="11.731" style="fill:#4d1d73;stroke:#e96396;stroke-width:1px;"/><rect x="144.231" y="140.58" width="6.538" height="11.731" style="fill:#4d1d73;stroke:#e96396;stroke-width:1px;"/></g></g><g><g><path d="M350.646,145.58c0,-1.806 -1.463,-3.269 -3.269,-3.269c-1.805,0 -3.268,1.463 -3.268,3.269l6.537,0Z" style="fill:#4d1d73;stroke:#e96396;stroke-width:1px;"/><rect x="344.109" y="145.58" width="6.538" height="11.731" style="fill:#4d1d73;stroke:#e96396;stroke-width:1px;"/></g><g><path d="M340.646,145.58c0,-1.806 -1.463,-3.269 -3.269,-3.269c-1.805,0 -3.268,1.463 -3.268,3.269l6.537,0Z" style="fill:#4d1d73;stroke:#e96396;stroke-width:1px;"/><rect x="334.109" y="145.58" width="6.538" height="11.731" style="fill:#4d1d73;stroke:#e96396;stroke-width:1px;"/></g><g><path d="M330.646,145.58c0,-1.806 -1.463,-3.269 -3.269,-3.269c-1.805,0 -3.268,1.463 -3.268,3.269l6.537,0Z" style="fill:#4d1d73;stroke:#e96396;stroke-width:1px;"/><rect x="324.109" y="145.58" width="6.538" height="11.731" style="fill:#4d1d73;stroke:#e96396;stroke-width:1px;"/></g></g><g><g><path d="M305.899,145.58c0,-1.806 -1.464,-3.269 -3.269,-3.269c-1.805,0 -3.269,1.463 -3.269,3.269l6.538,0Z" style="fill:#4d1d73;stroke:#e96396;stroke-width:1px;"/><rect x="299.361" y="145.58" width="6.538" height="11.731" style="fill:#4d1d73;stroke:#e96396;stroke-width:1px;"/></g><g><path d="M295.899,145.58c0,-1.806 -1.464,-3.269 -3.269,-3.269c-1.805,0 -3.269,1.463 -3.269,3.269l6.538,0Z" style="fill:#4d1d73;stroke:#e96396;stroke-width:1px;"/><rect x="289.361" y="145.58" width="6.538" height="11.731" style="fill:#4d1d73;stroke:#e96396;stroke-width:1px;"/></g><g><path d="M286.899,145.58c0,-1.806 -1.464,-3.269 -3.269,-3.269c-1.805,0 -3.269,1.463 -3.269,3.269l6.538,0Z" style="fill:#4d1d73;stroke:#e96396;stroke-width:1px;"/><rect x="280.361" y="145.58" width="6.538" height="11.731" style="fill:#4d1d73;stroke:#e96396;stroke-width:1px;"/></g><g><path d="M277.899,145.58c0,-1.806 -1.464,-3.269 -3.269,-3.269c-1.805,0 -3.269,1.463 -3.269,3.269l6.538,0Z" style="fill:#4d1d73;stroke:#e96396;stroke-width:1px;"/><rect x="271.361" y="145.58" width="6.538" height="11.731" style="fill:#4d1d73;stroke:#e96396;stroke-width:1px;"/></g><g><path d="M267.899,145.58c0,-1.806 -1.464,-3.269 -3.269,-3.269c-1.805,0 -3.269,1.463 -3.269,3.269l6.538,0Z" style="fill:#4d1d73;stroke:#e96396;stroke-width:1px;"/><rect x="261.361" y="145.58" width="6.538" height="11.731" style="fill:#4d1d73;stroke:#e96396;stroke-width:1px;"/></g><g><path d="M258.899,145.58c0,-1.806 -1.464,-3.269 -3.269,-3.269c-1.805,0 -3.269,1.463 -3.269,3.269l6.538,0Z" style="fill:#4d1d73;stroke:#e96396;stroke-width:1px;"/><rect x="252.361" y="145.58" width="6.538" height="11.731" style="fill:#4d1d73;stroke:#e96396;stroke-width:1px;"/></g><g><path d="M249.899,145.58c0,-1.806 -1.464,-3.269 -3.269,-3.269c-1.805,0 -3.269,1.463 -3.269,3.269l6.538,0Z" style="fill:#4d1d73;stroke:#e96396;stroke-width:1px;"/><rect x="243.361" y="145.58" width="6.538" height="11.731" style="fill:#4d1d73;stroke:#e96396;stroke-width:1px;"/></g><g><path d="M240.899,145.58c0,-1.806 -1.464,-3.269 -3.269,-3.269c-1.805,0 -3.269,1.463 -3.269,3.269l6.538,0Z" style="fill:#4d1d73;stroke:#e96396;stroke-width:1px;"/><rect x="234.361" y="145.58" width="6.538" height="11.731" style="fill:#4d1d73;stroke:#e96396;stroke-width:1px;"/></g><g><path d="M231.899,145.58c0,-1.806 -1.464,-3.269 -3.269,-3.269c-1.805,0 -3.269,1.463 -3.269,3.269l6.538,0Z" style="fill:#4d1d73;stroke:#e96396;stroke-width:1px;"/><rect x="225.361" y="145.58" width="6.538" height="11.731" style="fill:#4d1d73;stroke:#e96396;stroke-width:1px;"/></g></g><g><g><path d="M206.769,140.58c0,-1.806 -1.464,-3.269 -3.269,-3.269c-1.805,0 -3.269,1.463 -3.269,3.269l6.538,0Z" style="fill:#4d1d73;stroke:#e96396;stroke-width:1px;"/><rect x="200.231" y="140.58" width="6.538" height="11.731" style="fill:#4d1d73;stroke:#e96396;stroke-width:1px;"/></g><g><path d="M198.269,140.58c0,-1.806 -1.464,-3.269 -3.269,-3.269c-1.805,0 -3.269,1.463 -3.269,3.269l6.538,0Z" style="fill:#4d1d73;stroke:#e96396;stroke-width:1px;"/><rect x="191.731" y="140.58" width="6.538" height="11.731" style="fill:#4d1d73;stroke:#e96396;stroke-width:1px;"/></g><g><path d="M189.769,140.58c0,-1.806 -1.464,-3.269 -3.269,-3.269c-1.805,0 -3.269,1.463 -3.269,3.269l6.538,0Z" style="fill:#4d1d73;stroke:#e96396;stroke-width:1px;"/><rect x="183.231" y="140.58" width="6.538" height="11.731" style="fill:#4d1d73;stroke:#e96396;stroke-width:1px;"/></g><g><path d="M181.269,140.58c0,-1.806 -1.464,-3.269 -3.269,-3.269c-1.805,0 -3.269,1.463 -3.269,3.269l6.538,0Z" style="fill:#4d1d73;stroke:#e96396;stroke-width:1px;"/><rect x="174.731" y="140.58" width="6.538" height="11.731" style="fill:#4d1d73;stroke:#e96396;stroke-width:1px;"/></g><g><path d="M172.769,140.58c0,-1.806 -1.464,-3.269 -3.269,-3.269c-1.805,0 -3.269,1.463 -3.269,3.269l6.538,0Z" style="fill:#4d1d73;stroke:#e96396;stroke-width:1px;"/><rect x="166.231" y="140.58" width="6.538" height="11.731" style="fill:#4d1d73;stroke:#e96396;stroke-width:1px;"/></g></g><g><g><path d="M560.369,140.58c0,-1.806 1.463,-3.269 3.269,-3.269c1.805,0 3.269,1.463 3.269,3.269l-6.538,0Z" style="fill:#4d1d73;stroke:#e96396;stroke-width:1px;"/><rect x="560.369" y="140.58" width="6.538" height="11.731" style="fill:#4d1d73;stroke:#e96396;stroke-width:1px;"/><rect x="560.369" y="140.58" width="6.538" height="11.731" style="fill:#4d1d73;stroke:#e96396;stroke-width:1px;"/></g><g><path d="M551.369,140.58c0,-1.806 1.463,-3.269 3.269,-3.269c1.805,0 3.269,1.463 3.269,3.269l-6.538,0Z" style="fill:#4d1d73;stroke:#e96396;stroke-width:1px;"/><rect x="551.369" y="140.58" width="6.538" height="11.731" style="fill:#4d1d73;stroke:#e96396;stroke-width:1px;"/><rect x="551.369" y="140.58" width="6.538" height="11.731" style="fill:#4d1d73;stroke:#e96396;stroke-width:1px;"/></g><g><path d="M542.369,140.58c0,-1.806 1.463,-3.269 3.269,-3.269c1.805,0 3.269,1.463 3.269,3.269l-6.538,0Z" style="fill:#4d1d73;stroke:#e96396;stroke-width:1px;"/><rect x="542.369" y="140.58" width="6.538" height="11.731" style="fill:#4d1d73;stroke:#e96396;stroke-width:1px;"/><rect x="542.369" y="140.58" width="6.538" height="11.731" style="fill:#4d1d73;stroke:#e96396;stroke-width:1px;"/></g><g><path d="M533.369,140.58c0,-1.806 1.463,-3.269 3.269,-3.269c1.805,0 3.269,1.463 3.269,3.269l-6.538,0Z" style="fill:#4d1d73;stroke:#e96396;stroke-width:1px;"/><rect x="533.369" y="140.58" width="6.538" height="11.731" style="fill:#4d1d73;stroke:#e96396;stroke-width:1px;"/><rect x="533.369" y="140.58" width="6.538" height="11.731" style="fill:#4d1d73;stroke:#e96396;stroke-width:1px;"/></g><g><path d="M524.369,140.58c0,-1.806 1.463,-3.269 3.269,-3.269c1.805,0 3.269,1.463 3.269,3.269l-6.538,0Z" style="fill:#4d1d73;stroke:#e96396;stroke-width:1px;"/><rect x="524.369" y="140.58" width="6.538" height="11.731" style="fill:#4d1d73;stroke:#e96396;stroke-width:1px;"/><rect x="524.369" y="140.58" width="6.538" height="11.731" style="fill:#4d1d73;stroke:#e96396;stroke-width:1px;"/></g></g><g><g><path d="M369.239,145.58c0,-1.806 1.463,-3.269 3.269,-3.269c1.805,0 3.268,1.463 3.268,3.269l-6.537,0Z" style="fill:#4d1d73;stroke:#e96396;stroke-width:1px;"/><rect x="369.239" y="145.58" width="6.538" height="11.731" style="fill:#4d1d73;stroke:#e96396;stroke-width:1px;"/></g><g><path d="M379.239,145.58c0,-1.806 1.463,-3.269 3.269,-3.269c1.805,0 3.268,1.463 3.268,3.269l-6.537,0Z" style="fill:#4d1d73;stroke:#e96396;stroke-width:1px;"/><rect x="379.239" y="145.58" width="6.538" height="11.731" style="fill:#4d1d73;stroke:#e96396;stroke-width:1px;"/></g><g><path d="M388.239,145.58c0,-1.806 1.463,-3.269 3.269,-3.269c1.805,0 3.268,1.463 3.268,3.269l-6.537,0Z" style="fill:#4d1d73;stroke:#e96396;stroke-width:1px;"/><rect x="388.239" y="145.58" width="6.538" height="11.731" style="fill:#4d1d73;stroke:#e96396;stroke-width:1px;"/></g><g><path d="M397.239,145.58c0,-1.806 1.463,-3.269 3.269,-3.269c1.805,0 3.268,1.463 3.268,3.269l-6.537,0Z" style="fill:#4d1d73;stroke:#e96396;stroke-width:1px;"/><rect x="397.239" y="145.58" width="6.538" height="11.731" style="fill:#4d1d73;stroke:#e96396;stroke-width:1px;"/></g><g><path d="M407.239,145.58c0,-1.806 1.463,-3.269 3.269,-3.269c1.805,0 3.268,1.463 3.268,3.269l-6.537,0Z" style="fill:#4d1d73;stroke:#e96396;stroke-width:1px;"/><rect x="407.239" y="145.58" width="6.538" height="11.731" style="fill:#4d1d73;stroke:#e96396;stroke-width:1px;"/></g><g><path d="M416.239,145.58c0,-1.806 1.463,-3.269 3.269,-3.269c1.805,0 3.268,1.463 3.268,3.269l-6.537,0Z" style="fill:#4d1d73;stroke:#e96396;stroke-width:1px;"/><rect x="416.239" y="145.58" width="6.538" height="11.731" style="fill:#4d1d73;stroke:#e96396;stroke-width:1px;"/></g><g><path d="M425.239,145.58c0,-1.806 1.463,-3.269 3.269,-3.269c1.805,0 3.268,1.463 3.268,3.269l-6.537,0Z" style="fill:#4d1d73;stroke:#e96396;stroke-width:1px;"/><rect x="425.239" y="145.58" width="6.538" height="11.731" style="fill:#4d1d73;stroke:#e96396;stroke-width:1px;"/></g><g><path d="M434.239,145.58c0,-1.806 1.463,-3.269 3.269,-3.269c1.805,0 3.268,1.463 3.268,3.269l-6.537,0Z" style="fill:#4d1d73;stroke:#e96396;stroke-width:1px;"/><rect x="434.239" y="145.58" width="6.538" height="11.731" style="fill:#4d1d73;stroke:#e96396;stroke-width:1px;"/></g><g><path d="M443.239,145.58c0,-1.806 1.463,-3.269 3.269,-3.269c1.805,0 3.268,1.463 3.268,3.269l-6.537,0Z" style="fill:#4d1d73;stroke:#e96396;stroke-width:1px;"/><rect x="443.239" y="145.58" width="6.538" height="11.731" style="fill:#4d1d73;stroke:#e96396;stroke-width:1px;"/></g></g><g><g><path d="M468.369,140.58c0,-1.806 1.463,-3.269 3.269,-3.269c1.805,0 3.269,1.463 3.269,3.269l-6.538,0Z" style="fill:#4d1d73;stroke:#e96396;stroke-width:1px;"/><rect x="468.369" y="140.58" width="6.538" height="11.731" style="fill:#4d1d73;stroke:#e96396;stroke-width:1px;"/></g><g><path d="M476.869,140.58c0,-1.806 1.463,-3.269 3.269,-3.269c1.805,0 3.269,1.463 3.269,3.269l-6.538,0Z" style="fill:#4d1d73;stroke:#e96396;stroke-width:1px;"/><rect x="476.869" y="140.58" width="6.538" height="11.731" style="fill:#4d1d73;stroke:#e96396;stroke-width:1px;"/></g><g><path d="M485.369,140.58c0,-1.806 1.463,-3.269 3.269,-3.269c1.805,0 3.269,1.463 3.269,3.269l-6.538,0Z" style="fill:#4d1d73;stroke:#e96396;stroke-width:1px;"/><rect x="485.369" y="140.58" width="6.538" height="11.731" style="fill:#4d1d73;stroke:#e96396;stroke-width:1px;"/></g><g><path d="M493.869,140.58c0,-1.806 1.463,-3.269 3.269,-3.269c1.805,0 3.269,1.463 3.269,3.269l-6.538,0Z" style="fill:#4d1d73;stroke:#e96396;stroke-width:1px;"/><rect x="493.869" y="140.58" width="6.538" height="11.731" style="fill:#4d1d73;stroke:#e96396;stroke-width:1px;"/></g><g><path d="M502.369,140.58c0,-1.806 1.463,-3.269 3.269,-3.269c1.805,0 3.269,1.463 3.269,3.269l-6.538,0Z" style="fill:#4d1d73;stroke:#e96396;stroke-width:1px;"/><rect x="502.369" y="140.58" width="6.538" height="11.731" style="fill:#4d1d73;stroke:#e96396;stroke-width:1px;"/></g></g></g></g></svg>