<svg clip-rule="evenodd" fill-rule="evenodd" stroke-linecap="round" stroke-linejoin="round" stroke-miterlimit="1.5" viewBox="0 0 214 129" xmlns="http://www.w3.org/2000/svg"><g fill="#4d1d73" stroke="#e96396"><path d="m29.17 80.432c0-.036-.029-.065-.065-.065h-3.536c-.036 0-.064.029-.064.065v3.098c0 .035.028.064.064.064h3.536c.036 0 .065-.029.065-.064z" stroke-width=".3"/><path d="m26.054 76.789h2.566v3.579h-2.566z" stroke-width=".3"/><path d="m27.337 69.544.306 5.62h-.611z" stroke-width=".3"/><path d="m28.987 76.789c0-1.145-.739-2.074-1.65-2.074s-1.649.929-1.649 2.074z" stroke-width=".3"/><path d="m188.984 80.432c0-.036-.029-.065-.064-.065h-3.537c-.035 0-.064.029-.064.065v3.162h3.665z" stroke-width=".3"/><path d="m185.869 76.789h2.566v3.579h-2.566z" stroke-width=".3"/><path d="m187.152 69.544.305 5.62h-.611z" stroke-width=".3"/><path d="m188.801 76.789c0-1.145-.739-2.074-1.649-2.074-.911 0-1.65.929-1.65 2.074z" stroke-width=".3"/><path d="m183.483 84.938h19.304v12.095h-19.304z" stroke-width=".3"/><path d="m193.623 84.938-1.099-2.566h-9.041v2.566z" stroke-width=".3"/><path d="m138.033 97.034h74.221c.169 0 .307.137.307.306v30.053c0 .169-.138.307-.307.307h-74.221z" stroke-linecap="butt" stroke-miterlimit="1.41421"/><g stroke-width=".3"><path d="m167.233 119.697c0-1.45-1.285-2.626-2.871-2.626s-2.871 1.176-2.871 2.626z"/><path d="m161.491 119.697h5.742v2.26h-5.742z"/><path d="m156.543 119.697c0-1.45-1.286-2.626-2.872-2.626-1.585 0-2.871 1.176-2.871 2.626z"/><path d="m150.8 119.697h5.742v2.26h-5.742z"/><path d="m145.852 119.697c0-1.45-1.285-2.626-2.871-2.626s-2.871 1.176-2.871 2.626z"/><path d="m140.11 119.697h5.742v2.26h-5.742z"/><path d="m189.103 111.084h2.932v3.054h-2.932z"/><path d="m192.035 111.084c0-.823-.657-1.491-1.466-1.491-.81 0-1.466.668-1.466 1.491z"/><path d="m197.655 111.084h2.932v3.054h-2.932z"/><path d="m200.587 111.084c0-.823-.656-1.491-1.466-1.491s-1.466.668-1.466 1.491z"/><path d="m205.474 111.084h2.932v3.054h-2.932z"/><path d="m208.407 111.084c0-.823-.657-1.491-1.467-1.491-.809 0-1.466.668-1.466 1.491z"/><path d="m189.103 119.636h2.932v3.054h-2.932z"/><path d="m192.035 119.636c0-.823-.657-1.49-1.466-1.49-.81 0-1.466.667-1.466 1.49z"/><path d="m197.655 119.636h2.932v3.054h-2.932z"/><path d="m200.587 119.636c0-.823-.656-1.49-1.466-1.49s-1.466.667-1.466 1.49z"/><path d="m205.474 119.636h2.932v3.054h-2.932z"/><path d="m208.407 119.636c0-.823-.657-1.49-1.467-1.49-.809 0-1.466.667-1.466 1.49z"/><path d="m197.655 102.331h2.932v2.644h-2.932z"/><path d="m200.587 102.331c0-.712-.656-1.29-1.466-1.29s-1.466.578-1.466 1.29z"/><path d="m189.103 102.331h2.932v2.644h-2.932z"/><path d="m192.035 102.331c0-.712-.657-1.29-1.466-1.29-.81 0-1.466.578-1.466 1.29z"/><path d="m201.565 102.331h2.932v2.644h-2.932z"/><path d="m204.497 102.331c0-.712-.657-1.29-1.466-1.29-.81 0-1.466.578-1.466 1.29z"/><path d="m205.474 102.532h2.932v2.444h-2.932z"/><path d="m208.407 102.532c0-.824-.657-1.491-1.467-1.491-.809 0-1.466.667-1.466 1.491z"/><path d="m139.988 108.885h2.566v4.521h-2.566z"/><path d="m142.553 108.885c0-.608-.574-1.1-1.282-1.1-.709 0-1.283.492-1.283 1.1z"/><path d="m143.286 108.885h2.566v4.521h-2.566z"/><path d="m145.852 108.885c0-.608-.574-1.1-1.283-1.1-.708 0-1.283.492-1.283 1.1z"/><path d="m146.219 106.127c0-1.703-1.477-3.083-3.299-3.083s-3.299 1.38-3.299 3.083z"/><path d="m150.739 108.885h2.566v4.521h-2.566z"/><path d="m153.305 108.885c0-.608-.574-1.1-1.283-1.1-.708 0-1.283.492-1.283 1.1z"/><path d="m154.038 108.885h2.566v4.521h-2.566z"/><path d="m156.604 108.885c0-.608-.575-1.1-1.283-1.1-.709 0-1.283.492-1.283 1.1z"/><path d="m156.97 106.127c0-1.703-1.477-3.083-3.299-3.083-1.821 0-3.298 1.38-3.298 3.083z"/><path d="m161.491 108.885h2.566v4.521h-2.566z"/><path d="m164.056 108.885c0-.608-.574-1.1-1.282-1.1-.709 0-1.283.492-1.283 1.1z"/><path d="m164.789 108.885h2.566v4.521h-2.566z"/><path d="m167.355 108.885c0-.608-.574-1.1-1.283-1.1-.708 0-1.283.492-1.283 1.1z"/><path d="m167.722 106.127c0-1.703-1.477-3.083-3.299-3.083s-3.299 1.38-3.299 3.083z"/></g><path d="m202.743 77.505c-1.09 1.894-2.621 1.641-2.949 4.469-.625 5.394-3.535 8.633-4.871 10.906v4.154h7.82"/><path d="m202.743 77.505c1.089 1.894 2.62 1.641 2.948 4.469.625 5.394 3.535 8.633 4.871 10.906v4.154h-7.819"/><path d="m200.478 91.902h4.521v5.131h-4.521z" stroke-width=".3"/><path d="m202.743 89.581 2.26 2.321h-4.521z" stroke-width=".3"/><path d="m11.58 84.938h19.304v12.095h-19.304z" stroke-width=".3"/><path d="m20.743 84.938 1.1-2.566h9.041v2.566z" stroke-width=".3"/><path d="m1.439 97.34c0-.169.138-.306.307-.306h74.221v30.666h-74.221c-.169 0-.307-.138-.307-.307v-30.053z" stroke-linecap="butt" stroke-miterlimit="1.41421"/><path d="m73.89 119.697c0-1.45-1.285-2.626-2.871-2.626s-2.871 1.176-2.871 2.626z" stroke-width=".3"/><path d="m68.148 119.697h5.742v2.26h-5.742z" stroke-width=".3"/><path d="m63.2 119.697c0-1.45-1.286-2.626-2.871-2.626-1.586 0-2.872 1.176-2.872 2.626z" stroke-width=".3"/><path d="m57.457 119.697h5.742v2.26h-5.742z" stroke-width=".3"/><path d="m52.509 119.697c0-1.45-1.285-2.626-2.871-2.626s-2.871 1.176-2.871 2.626z" stroke-width=".3"/><path d="m46.767 119.697h5.742v2.26h-5.742z" stroke-width=".3"/><path d="m22.454 111.084h2.932v3.054h-2.932z" stroke-width=".3"/><path d="m22.454 111.084c0-.823.656-1.491 1.466-1.491s1.466.668 1.466 1.491z" stroke-width=".3"/><path d="m13.901 111.084h2.932v3.054h-2.932z" stroke-width=".3"/><path d="m13.901 111.084c0-.823.657-1.491 1.467-1.491.809 0 1.466.668 1.466 1.491z" stroke-width=".3"/><path d="m6.082 111.084h2.932v3.054h-2.932z" stroke-width=".3"/><path d="m6.082 111.084c0-.823.657-1.491 1.466-1.491.81 0 1.466.668 1.466 1.491z" stroke-width=".3"/><path d="m22.454 119.636h2.932v3.054h-2.932z" stroke-width=".3"/><path d="m22.454 119.636c0-.823.656-1.49 1.466-1.49s1.466.667 1.466 1.49z" stroke-width=".3"/><path d="m13.901 119.636h2.932v3.054h-2.932z" stroke-width=".3"/><path d="m13.901 119.636c0-.823.657-1.49 1.467-1.49.809 0 1.466.667 1.466 1.49z" stroke-width=".3"/><path d="m6.082 119.636h2.932v3.054h-2.932z" stroke-width=".3"/><path d="m6.082 119.636c0-.823.657-1.49 1.466-1.49.81 0 1.466.667 1.466 1.49z" stroke-width=".3"/><path d="m13.901 102.331h2.932v2.644h-2.932z" stroke-width=".3"/><path d="m13.901 102.331c0-.712.657-1.29 1.467-1.29.809 0 1.466.578 1.466 1.29z" stroke-width=".3"/><path d="m22.209 102.331h2.932v2.644h-2.932z" stroke-width=".3"/><path d="m22.209 102.331c0-.712.657-1.29 1.467-1.29.809 0 1.466.578 1.466 1.29z" stroke-width=".3"/><path d="m9.992 102.331h2.932v2.644h-2.932z" stroke-width=".3"/><path d="m9.992 102.331c0-.712.656-1.29 1.466-1.29s1.466.578 1.466 1.29z" stroke-width=".3"/><path d="m6.082 102.532h2.932v2.444h-2.932z" stroke-width=".3"/><path d="m6.082 102.532c0-.824.657-1.491 1.466-1.491.81 0 1.466.667 1.466 1.491z" stroke-width=".3"/><path d="m46.645 108.885h2.566v4.521h-2.566z" stroke-width=".3"/><path d="m49.211 108.885c0-.608-.575-1.1-1.283-1.1-.709 0-1.283.492-1.283 1.1z" stroke-width=".3"/><path d="m49.944 108.885h2.566v4.521h-2.566z" stroke-width=".3"/><path d="m52.509 108.885c0-.608-.574-1.1-1.283-1.1-.708 0-1.282.492-1.282 1.1z" stroke-width=".3"/><path d="m52.876 106.127c0-1.703-1.477-3.083-3.299-3.083s-3.299 1.38-3.299 3.083z" stroke-width=".3"/><path d="m57.396 108.885h2.566v4.521h-2.566z" stroke-width=".3"/><path d="m59.962 108.885c0-.608-.574-1.1-1.283-1.1-.708 0-1.283.492-1.283 1.1z" stroke-width=".3"/><path d="m60.695 108.885h2.566v4.521h-2.566z" stroke-width=".3"/><path d="m63.261 108.885c0-.608-.575-1.1-1.283-1.1-.709 0-1.283.492-1.283 1.1z" stroke-width=".3"/><path d="m63.627 106.127c0-1.703-1.477-3.083-3.298-3.083-1.822 0-3.299 1.38-3.299 3.083z" stroke-width=".3"/><path d="m68.148 108.885h2.566v4.521h-2.566z" stroke-width=".3"/><path d="m70.714 108.885c0-.608-.575-1.1-1.283-1.1-.709 0-1.283.492-1.283 1.1z" stroke-width=".3"/><path d="m71.447 108.885h2.566v4.521h-2.566z" stroke-width=".3"/><path d="m74.012 108.885c0-.608-.574-1.1-1.283-1.1-.708 0-1.282.492-1.282 1.1z" stroke-width=".3"/><path d="m74.379 106.127c0-1.703-1.477-3.083-3.299-3.083s-3.299 1.38-3.299 3.083z" stroke-width=".3"/><path d="m11.458 77.505c-1.09 1.894-2.62 1.641-2.948 4.469-.625 5.394-3.535 8.633-4.871 10.906v4.154h7.819"/><path d="m11.458 77.505c1.09 1.894 2.62 1.641 2.948 4.469.625 5.394 3.535 8.633 4.871 10.906v4.154h-7.819"/><path d="m9.196 91.902h4.521v5.131h-4.521z" stroke-width=".3"/><path d="m11.46 89.581 2.26 2.321h-4.52z" stroke-width=".3"/><path d="m78.012 57.693.289 6.719h-.578z" stroke-width=".3"/><path d="m79.384 66.489c0-1.484-.614-2.687-1.372-2.687s-1.373 1.203-1.373 2.687z" stroke-width=".3"/><path d="m76.639 66.367h2.745v12.829h-2.745z" stroke-width=".3"/><path d="m136.358 57.693.29 6.719h-.579z" stroke-width=".3"/><path d="m137.731 66.489c0-1.484-.614-2.687-1.373-2.687-.758 0-1.372 1.203-1.372 2.687z" stroke-width=".3"/><path d="m134.986 66.367h2.745v12.829h-2.745z" stroke-width=".3"/><path d="m30.884 70.197c0-.08.065-.145.144-.145h14.129c.079 0 .144.065.144.145v57.503h-14.417z" stroke-linecap="butt" stroke-miterlimit="1.41421"/><path d="m36.382 110.229h4.643v3.421h-4.643z" stroke-width=".3"/><path d="m41.025 110.229c0-1.046-1.04-1.894-2.322-1.894s-2.321.848-2.321 1.894z" stroke-width=".3"/><path d="m37.909 99.477h1.588v3.125h-1.588z" stroke-width=".3"/><path d="m40.353 99.477h1.588v3.125h-1.588z" stroke-width=".3"/><path d="m35.466 99.477h1.588v3.125h-1.588z" stroke-width=".3"/><path d="m31.678 61.744h12.829v8.308h-12.829z" stroke-width=".3"/><path d="m38.092 38.531 6.415 23.213h-12.829z" stroke-width=".3"/><path d="m38.092 35.111.611 4.764h-1.221z" stroke-width=".3"/><path d="m41.452 43.662c0-2.361-1.504-4.276-3.36-4.276-1.855 0-3.359 1.915-3.359 4.276z" stroke-width=".3"/><path d="m34.733 43.662h6.72v7.086h-6.72z" stroke-width=".3"/><path d="m169.188 70.197c0-.08.064-.145.144-.145h14.129c.079 0 .144.065.144.145v57.503h-14.417z" stroke-linecap="butt" stroke-miterlimit="1.41421"/><path d="m174.075 110.229h4.643v3.421h-4.643z" stroke-width=".3"/><path d="m178.718 110.229c0-1.046-1.04-1.894-2.322-1.894s-2.321.848-2.321 1.894z" stroke-width=".3"/><path d="m175.602 99.477h1.588v3.125h-1.588z" stroke-width=".3"/><path d="m178.046 99.477h1.588v3.125h-1.588z" stroke-width=".3"/><path d="m173.159 99.477h1.588v3.125h-1.588z" stroke-width=".3"/><path d="m169.982 61.744h12.829v8.308h-12.829z" stroke-width=".3"/><path d="m176.396 38.531 6.415 23.213h-12.829z" stroke-width=".3"/><path d="m176.396 35.111.611 4.764h-1.222z" stroke-width=".3"/><path d="m179.756 43.662c0-2.361-1.504-4.276-3.36-4.276-1.855 0-3.36 1.915-3.36 4.276z" stroke-width=".3"/><path d="m173.036 43.662h6.72v7.086h-6.72z" stroke-width=".3"/><path d="m136.2 78.829h24.96l6.146 9.897h1.004l.878 5.498v2.81h-31.988z" stroke-width=".3"/><path d="m78.289 78.829h-24.96l-6.147 9.897h-1.003l-.878 5.498v2.81h31.988z" stroke-width=".3"/><path d="m138.033 89.962c0-.21-.171-.381-.381-.381h-61.304c-.21 0-.381.171-.381.381v37.738h62.066z" stroke-linecap="butt" stroke-miterlimit="1.41421"/><path d="m102.112 121.469h9.774v6.231h-9.774z" stroke-linecap="butt" stroke-miterlimit="1.41421"/><path d="m102.112 121.469h9.774v6.231h-9.774z" stroke-linecap="butt" stroke-miterlimit="1.41421"/><path d="m111.888 121.469c0-2.379-2.188-4.307-4.887-4.307s-4.887 1.928-4.887 4.307z" stroke-linecap="butt" stroke-miterlimit="1.41421"/><path d="m120.409 121.469h9.774v6.231h-9.774z" stroke-linecap="butt" stroke-miterlimit="1.41421"/><path d="m130.185 121.469c0-2.379-2.188-4.307-4.887-4.307s-4.887 1.928-4.887 4.307z" stroke-linecap="butt" stroke-miterlimit="1.41421"/><path d="m83.815 121.469h9.774v6.231h-9.774z" stroke-linecap="butt" stroke-miterlimit="1.41421"/><path d="m93.591 121.469c0-2.379-2.188-4.307-4.887-4.307s-4.887 1.928-4.887 4.307z" stroke-linecap="butt" stroke-miterlimit="1.41421"/><path d="m105.291 105.952h3.787v8.552h-3.787z" stroke-linecap="butt" stroke-miterlimit="1.41421"/><path d="m109.22 105.464c.206-.297.315-.635.315-.978 0-1.079-1.054-1.954-2.352-1.954s-2.352.875-2.352 1.954c0 .343.109.681.315.978z" stroke-linecap="butt" stroke-miterlimit="1.41421"/><path d="m111.981 105.464c0-2.935-2.147-5.315-4.796-5.315s-4.796 2.38-4.796 5.315z" stroke-linecap="butt" stroke-miterlimit="1.41421"/><path d="m109.69 105.952h1.833v8.552h-1.833z" stroke-linecap="butt" stroke-miterlimit="1.41421"/><path d="m102.848 105.952h1.833v8.552h-1.833z" stroke-linecap="butt" stroke-miterlimit="1.41421"/><path d="m123.496 105.952h3.787v8.552h-3.787z" stroke-linecap="butt" stroke-miterlimit="1.41421"/><path d="m127.424 105.464c.207-.297.315-.635.315-.978 0-1.079-1.053-1.954-2.351-1.954s-2.352.875-2.352 1.954c0 .343.108.681.315.978z" stroke-linecap="butt" stroke-miterlimit="1.41421"/><path d="m130.186 105.464c0-2.935-2.148-5.315-4.797-5.315s-4.796 2.38-4.796 5.315z" stroke-linecap="butt" stroke-miterlimit="1.41421"/><path d="m127.894 105.952h1.833v8.552h-1.833z" stroke-linecap="butt" stroke-miterlimit="1.41421"/><path d="m121.052 105.952h1.833v8.552h-1.833z" stroke-linecap="butt" stroke-miterlimit="1.41421"/><path d="m87.087 105.952h3.787v8.552h-3.787z" stroke-linecap="butt" stroke-miterlimit="1.41421"/><path d="m91.016 105.464c.206-.297.315-.635.315-.978 0-1.079-1.054-1.954-2.352-1.954s-2.352.875-2.352 1.954c0 .343.109.681.315.978z" stroke-linecap="butt" stroke-miterlimit="1.41421"/><path d="m93.777 105.464c0-2.935-2.147-5.315-4.796-5.315s-4.797 2.38-4.797 5.315z" stroke-linecap="butt" stroke-miterlimit="1.41421"/><path d="m91.485 105.952h1.833v8.552h-1.833z" stroke-linecap="butt" stroke-miterlimit="1.41421"/><path d="m84.644 105.952h1.833v8.552h-1.833z" stroke-linecap="butt" stroke-miterlimit="1.41421"/><path d="m68.148 90.436h6.231v6.598h-6.231z" stroke-linecap="butt" stroke-miterlimit="1.41421"/><path d="m69.736 92.635h3.054v3.054h-3.054z" stroke-linecap="butt" stroke-miterlimit="1.41421"/><path d="m72.791 92.635c0-.607-.684-1.099-1.528-1.099-.843 0-1.527.492-1.527 1.099z" stroke-linecap="butt" stroke-miterlimit="1.41421"/><path d="m71.263 90.436h3.116c-.992-.223-.619-.758-1.367-1.681-.472-.581-1.223-.594-1.749-2.106zm-.061 0h-3.054c.991-.223.618-.758 1.367-1.681.472-.581 1.223-.594 1.748-2.106z"/><path d="m71.263 87.748v-.977" stroke-width=".3"/><path d="m57.396 90.436h6.231v6.598h-6.231z" stroke-linecap="butt" stroke-miterlimit="1.41421"/><path d="m58.985 92.635h3.054v3.054h-3.054z" stroke-linecap="butt" stroke-miterlimit="1.41421"/><path d="m62.039 92.635c0-.607-.684-1.099-1.527-1.099-.844 0-1.527.492-1.527 1.099z" stroke-linecap="butt" stroke-miterlimit="1.41421"/><path d="m60.512 90.436h3.115c-.991-.223-.618-.758-1.367-1.681-.472-.581-1.223-.594-1.748-2.106zm-.061 0h-3.055c.992-.223.619-.758 1.367-1.681.472-.581 1.224-.594 1.749-2.106z"/><path d="m60.512 87.748v-.977" stroke-width=".3"/><path d="m46.645 90.436h6.231v6.598h-6.231z" stroke-linecap="butt" stroke-miterlimit="1.41421"/><path d="m48.233 92.635h3.054v3.054h-3.054z" stroke-linecap="butt" stroke-miterlimit="1.41421"/><path d="m51.288 92.635c0-.607-.684-1.099-1.528-1.099-.843 0-1.527.492-1.527 1.099z" stroke-linecap="butt" stroke-miterlimit="1.41421"/><path d="m49.76 90.436h3.116c-.992-.223-.619-.758-1.367-1.681-.472-.581-1.224-.594-1.749-2.106zm-.061 0h-3.054c.991-.223.618-.758 1.367-1.681.472-.581 1.223-.594 1.748-2.106z"/><path d="m49.76 87.748v-.977" stroke-width=".3"/><path d="m139.621 90.436h6.231v6.598h-6.231z" stroke-linecap="butt" stroke-miterlimit="1.41421"/><path d="m141.209 92.635h3.054v3.054h-3.054z" stroke-linecap="butt" stroke-miterlimit="1.41421"/><path d="m144.264 92.635c0-.607-.684-1.099-1.527-1.099-.844 0-1.528.492-1.528 1.099z" stroke-linecap="butt" stroke-miterlimit="1.41421"/><path d="m142.737 90.436h3.115c-.991-.223-.618-.758-1.367-1.681-.472-.581-1.223-.594-1.748-2.106zm-.061 0h-3.055c.992-.223.619-.758 1.367-1.681.472-.581 1.223-.594 1.749-2.106z"/><path d="m142.737 87.748v-.977" stroke-width=".3"/><path d="m150.373 90.436h6.231v6.598h-6.231z" stroke-linecap="butt" stroke-miterlimit="1.41421"/><path d="m151.961 92.635h3.054v3.054h-3.054z" stroke-linecap="butt" stroke-miterlimit="1.41421"/><path d="m155.015 92.635c0-.607-.683-1.099-1.527-1.099-.843 0-1.527.492-1.527 1.099z" stroke-linecap="butt" stroke-miterlimit="1.41421"/><path d="m153.488 90.436h3.116c-.992-.223-.619-.758-1.367-1.681-.472-.581-1.224-.594-1.749-2.106zm-.061 0h-3.054c.991-.223.618-.758 1.367-1.681.472-.581 1.223-.594 1.748-2.106z"/><path d="m153.488 87.748v-.977" stroke-width=".3"/><path d="m161.124 90.436h6.231v6.598h-6.231z" stroke-linecap="butt" stroke-miterlimit="1.41421"/><path d="m162.712 92.635h3.054v3.054h-3.054z" stroke-linecap="butt" stroke-miterlimit="1.41421"/><path d="m165.767 92.635c0-.607-.684-1.099-1.527-1.099-.844 0-1.528.492-1.528 1.099z" stroke-linecap="butt" stroke-miterlimit="1.41421"/><path d="m164.24 90.436h3.115c-.991-.223-.618-.758-1.367-1.681-.472-.581-1.223-.594-1.748-2.106zm-.061 0h-3.055c.992-.223.619-.758 1.367-1.681.472-.581 1.224-.594 1.749-2.106z"/><path d="m164.24 87.748v-.977" stroke-width=".3"/><path d="m107.183.514.917 10.019h-1.833l.916-10.019z" stroke-linecap="butt" stroke-miterlimit="1.41421"/><path d="m110.147 17.86c.301-.974.459-2.08.459-3.205 0-3.538-1.534-6.41-3.423-6.41s-3.423 2.872-3.423 6.41c0 1.125.159 2.231.459 3.205z" stroke-linecap="butt" stroke-miterlimit="1.41421"/><path d="m118.155 60.777c2.91-3.54 4.545-8.342 4.545-13.348 0-10.418-6.953-18.876-15.517-18.876-8.563 0-15.516 8.458-15.516 18.876 0 5.006 1.635 9.808 4.545 13.348z" stroke-linecap="butt" stroke-miterlimit="1.41421"/><path d="m88.918 45.964h4.909c.055 0 .1.045.1.1v25.72h-5.009z" stroke-linecap="butt" stroke-miterlimit="1.41421"/><path d="m103.76 12.854h6.846v9.53h-6.846z" stroke-linecap="butt" stroke-miterlimit="1.41421"/><path d="m101.198 20.429h11.971v9.53h-11.971z" stroke-linecap="butt" stroke-miterlimit="1.41421"/><path d="m120.317 46.064c0-.055.045-.1.1-.1h4.909v25.82h-5.009z" stroke-linecap="butt" stroke-miterlimit="1.41421"/><path d="m123.462 38.144 1.864 7.82h-2.993z" stroke-width=".3"/><path d="m90.783 38.144-1.865 7.82h2.993z" stroke-width=".3"/><path d="m101.502 46.086h11.24v29.953h-11.24z" stroke-width=".3"/><path d="m99.914 45.475h14.417v7.819h-14.417z" stroke-width=".3"/><path d="m107.122 41.688 7.209 3.787h-14.417z" stroke-width=".3"/><path d="m120.317 51.34h-6.795c-.43 0-.78.349-.78.78v19.664h7.575z" stroke-width=".6"/><path d="m101.502 52.11c0-.425-.345-.77-.771-.77h-6.804v20.444h7.575z" stroke-width=".6"/><circle cx="107.185" cy="52.134" r="4.582" stroke-width=".3"/><path d="m137.059 72.14c0-.197-.159-.356-.356-.356h-59.036c-.196 0-.356.159-.356.356v17.441h59.748z" stroke-width=".3"/><path d="m88.918 70.052c-1.09 1.894-2.62 1.641-2.948 4.47-.625 5.393-3.536 8.632-4.871 10.905v4.154h7.819"/><path d="m88.918 70.052c1.09 1.894 2.62 1.641 2.948 4.47.625 5.393 3.535 8.632 4.871 10.905v4.154h-7.819"/><path d="m88.918 70.175v14.274" stroke-width=".6"/><path d="m86.413 84.083h5.009v5.498h-5.009z" stroke-width=".3"/><path d="m91.422 84.083c0-1.417-1.121-2.566-2.504-2.566s-2.505 1.149-2.505 2.566z" stroke-width=".3"/><path d="m107.185 70.052c-1.09 1.894-2.62 1.641-2.948 4.47-.625 5.393-3.535 8.632-4.871 10.905v4.154h7.819"/><path d="m107.185 70.052c1.09 1.894 2.62 1.641 2.948 4.47.625 5.393 3.536 8.632 4.871 10.905v4.154h-7.819"/><path d="m107.185 70.175v14.274" stroke-width=".6"/><path d="m104.681 84.083h5.009v5.498h-5.009z" stroke-width=".3"/><path d="m109.69 84.083c0-1.417-1.122-2.566-2.505-2.566s-2.504 1.149-2.504 2.566z" stroke-width=".3"/><path d="m125.452 70.052c-1.09 1.894-2.62 1.641-2.948 4.47-.625 5.393-3.535 8.632-4.871 10.905v4.154h7.819"/><path d="m125.452 70.052c1.09 1.894 2.621 1.641 2.948 4.47.626 5.393 3.536 8.632 4.872 10.905v4.154h-7.82"/><path d="m125.452 70.175v14.274" stroke-width=".6"/><path d="m122.822 84.083h5.009v5.498h-5.009z" stroke-width=".3"/><path d="m127.831 84.083c0-1.417-1.121-2.566-2.505-2.566-1.383 0-2.504 1.149-2.504 2.566z" stroke-width=".3"/></g></svg>