<svg width="0" height="0" class="hidden">
  <symbol xmlns="http://www.w3.org/2000/svg" viewBox="0 0 24 24" id="github">
    <path d="M12 2C6.475 2 2 6.475 2 12a9.994 9.994 0 0 0 6.838 9.488c.5.087.687-.213.687-.476 0-.237-.013-1.024-.013-1.862-2.512.463-3.162-.612-3.362-1.175-.113-.288-.6-1.175-1.025-1.413-.35-.187-.85-.65-.013-.662.788-.013 1.35.725 1.538 1.025.9 1.512 2.338 1.087 2.912.825.088-.65.35-1.087.638-1.337-2.225-.25-4.55-1.113-4.55-4.938 0-1.088.387-1.987 1.025-2.688-.1-.25-.45-1.275.1-2.65 0 0 .837-.262 2.75 1.026a9.28 9.28 0 0 1 2.5-.338c.85 0 1.7.112 2.5.337 1.912-1.3 2.75-1.024 2.75-1.024.55 1.375.2 2.4.1 2.65.637.7 1.025 1.587 1.025 2.687 0 3.838-2.337 4.688-4.562 4.938.362.312.675.912.675 1.85 0 1.337-.013 2.412-.013 2.75 0 .262.188.574.688.474A10.016 10.016 0 0 0 22 12c0-5.525-4.475-10-10-10z"></path>
  </symbol>
  <symbol xmlns="http://www.w3.org/2000/svg" viewBox="0 0 24 24" id="slack">
    <path d="M6.527 14.514A1.973 1.973 0 0 1 4.56 16.48a1.973 1.973 0 0 1-1.967-1.967c0-1.083.884-1.968 1.967-1.968h1.968v1.968zm.992 0c0-1.083.884-1.968 1.967-1.968 1.083 0 1.968.885 1.968 1.968v4.927a1.973 1.973 0 0 1-1.968 1.967 1.973 1.973 0 0 1-1.967-1.967v-4.927zm1.967-7.987A1.973 1.973 0 0 1 7.52 4.56c0-1.083.884-1.967 1.967-1.967 1.083 0 1.968.884 1.968 1.967v1.968H9.486zm0 .992c1.083 0 1.968.884 1.968 1.967a1.973 1.973 0 0 1-1.968 1.968H4.56a1.973 1.973 0 0 1-1.967-1.968c0-1.083.884-1.967 1.967-1.967h4.927zm7.987 1.967c0-1.083.885-1.967 1.968-1.967s1.967.884 1.967 1.967a1.973 1.973 0 0 1-1.967 1.968h-1.968V9.486zm-.992 0a1.973 1.973 0 0 1-1.967 1.968 1.973 1.973 0 0 1-1.968-1.968V4.56c0-1.083.885-1.967 1.968-1.967s1.967.884 1.967 1.967v4.927zm-1.967 7.987c1.083 0 1.967.885 1.967 1.968a1.973 1.973 0 0 1-1.967 1.967 1.973 1.973 0 0 1-1.968-1.967v-1.968h1.968zm0-.992a1.973 1.973 0 0 1-1.968-1.967c0-1.083.885-1.968 1.968-1.968h4.927c1.083 0 1.967.885 1.967 1.968a1.973 1.973 0 0 1-1.967 1.967h-4.927z"></path>
  </symbol>
  <symbol xmlns="http://www.w3.org/2000/svg" viewBox="0 0 24 24" id="twitter">
    <path d="M22.162 5.656a8.384 8.384 0 0 1-2.402.658A4.196 4.196 0 0 0 21.6 4c-.82.488-1.719.83-2.656 1.015a4.182 4.182 0 0 0-7.126 3.814 11.874 11.874 0 0 1-8.62-4.37 4.168 4.168 0 0 0-.566 2.103c0 1.45.738 2.731 1.86 3.481a4.168 4.168 0 0 1-1.894-.523v.052a4.185 4.185 0 0 0 3.355 4.101 4.21 4.21 0 0 1-1.89.072A4.185 4.185 0 0 0 7.97 16.65a8.394 8.394 0 0 1-6.191 1.732 11.83 11.83 0 0 0 6.41 1.88c7.693 0 11.9-6.373 11.9-11.9 0-.18-.005-.362-.013-.54a8.496 8.496 0 0 0 2.087-2.165z"></path>
  </symbol>
</svg>
