<svg clip-rule="evenodd" fill-rule="evenodd" stroke-linejoin="round" stroke-miterlimit="1.41421" viewBox="0 0 673 295" xmlns="http://www.w3.org/2000/svg" xmlns:xlink="http://www.w3.org/1999/xlink"><clipPath id="a"><path clip-rule="evenodd" d="m584.5 122.391c0-2.252-1.828-4.08-4.08-4.08h-486.715c-1.769 0-3.205 1.436-3.205 3.205v172.795h494z"/></clipPath><clipPath id="b"><path clip-rule="evenodd" d="m101.255 202.311h-98.433c-.865 0-1.567.702-1.567 1.567v88.593c0 1.015.824 1.84 1.84 1.84h98.16z"/></clipPath><clipPath id="c"><path clip-rule="evenodd" d="m672.5 203.876c0-.864-.701-1.565-1.565-1.565h-98.435v92h98.16c1.016 0 1.84-.825 1.84-1.84z"/></clipPath><clipPath id="d"><path clip-rule="evenodd" d="m530.877 98.311h42v20h-42z"/></clipPath><path d="m584.5 122.391c0-2.252-1.828-4.08-4.08-4.08h-486.715c-1.769 0-3.205 1.436-3.205 3.205v172.795h494z" fill="#4d1d73"/><g clip-path="url(#a)" fill="#4d1d73" stroke="#e96396"><path d="m584.5 118.985c0-.372-.302-.674-.675-.674h-10.798c-.372 0-.675.302-.675.674v91.651c0 .373.303.675.675.675h10.798c.373 0 .675-.302.675-.675z"/><path d="m102.5 118.977c0-.368-.299-.666-.666-.666h-10.668c-.367 0-.666.298-.666.666v82.667c0 .368.299.667.666.667h10.668c.367 0 .666-.299.666-.667z"/><path d="m571.908 126.311c.245 0 .444-.199.444-.444v-7.112c0-.245-.199-.444-.444-.444h-468.816c-.245 0-.444.199-.444.444v7.112c0 .245.199.444.444.444z"/></g><path d="m584.5 122.391c0-2.252-1.828-4.08-4.08-4.08h-486.715c-1.769 0-3.205 1.436-3.205 3.205v172.795h494z" fill="none" stroke="#e96396"/><path d="m310.377 15.311h54v103h-54z" fill="#4d1d73" stroke="#e96396"/><path d="m363.5 9.755c0-.245-.199-.444-.444-.444h-7.112c-.245 0-.444.199-.444.444v108.112c0 .245.199.444.444.444h7.112c.245 0 .444-.199.444-.444z" fill="#4d1d73" stroke="#e96396"/><path d="m317.5 9.755c0-.245-.199-.444-.444-.444h-7.112c-.245 0-.444.199-.444.444v108.112c0 .245.199.444.444.444h7.112c.245 0 .444-.199.444-.444z" fill="#4d1d73" stroke="#e96396"/><path d="m366.877 2.088c0-.429-.348-.777-.777-.777h-58.445c-.429 0-.778.348-.778.777v12.445c0 .43.349.778.778.778h58.445c.429 0 .777-.348.777-.778z" fill="#4d1d73" stroke="#e96396"/><path d="m101.255 202.311h-98.433c-.865 0-1.567.702-1.567 1.567v88.593c0 1.015.824 1.84 1.84 1.84h98.16z" fill="#4d1d73"/><g clip-path="url(#b)"><path d="m7.255 202.644c0-.184-.149-.333-.333-.333h-5.334c-.184 0-.333.149-.333.333v91.334c0 .184.149.333.333.333h5.334c.184 0 .333-.149.333-.333z" fill="#4d1d73" stroke="#e96396"/></g><path d="m101.255 202.311h-98.433c-.865 0-1.567.702-1.567 1.567v88.593c0 1.015.824 1.84 1.84 1.84h98.16z" fill="none" stroke="#e96396"/><path d="m672.5 203.876c0-.864-.701-1.565-1.565-1.565h-98.435v92h98.16c1.016 0 1.84-.825 1.84-1.84z" fill="#4d1d73"/><g clip-path="url(#c)"><path d="m672.5 202.644c0-.184-.149-.333-.333-.333h-5.334c-.184 0-.333.149-.333.333v91.334c0 .184.149.333.333.333h5.334c.184 0 .333-.149.333-.333z" fill="#4d1d73" stroke="#e96396"/></g><path d="m672.5 203.876c0-.864-.701-1.565-1.565-1.565h-98.435v92h98.16c1.016 0 1.84-.825 1.84-1.84z" fill="none" stroke="#e96396"/><path d="m584.143 213.174c.197 0 .357-.16.357-.358v-5.717c0-.197-.16-.357-.357-.357h-493.286c-.197 0-.357.16-.357.357v5.717c0 .198.16.358.357.358z" fill="#4d1d73" stroke="#e96396"/><path d="m572.5 200.311h12v6.431h-12z" fill="#4d1d73" stroke="#e96396"/><path d="m90.5 200.311h12v6.431h-12z" fill="#4d1d73" stroke="#e96396"/><path d="m102.877 101.311h42v17h-42z" fill="#4d1d73" stroke="#e96396"/><path d="m147.255 100.674c0 .352-.285.637-.637.637h-45.481c-.352 0-.637-.285-.637-.637v-11.727c0-.351.285-.636.637-.636h45.481c.352 0 .637.285.637.636z" fill="#4d1d73" stroke="#e96396"/><path d="m110.877 101.755c0-.245-.199-.444-.444-.444h-7.111c-.245 0-.445.199-.445.444v16.112c0 .245.2.444.445.444h7.111c.245 0 .444-.199.444-.444z" fill="#4d1d73" stroke="#e96396"/><path d="m144.877 101.755c0-.245-.199-.444-.444-.444h-7.111c-.245 0-.445.199-.445.444v16.112c0 .245.2.444.445.444h7.111c.245 0 .444-.199.444-.444z" fill="#4d1d73" stroke="#e96396"/><path d="m530.877 98.311h42v20h-42z" fill="#4d1d73"/><g stroke="#e96396"><g clip-path="url(#d)" fill="#4d1d73"><path d="m538.877 98.755c0-.245-.199-.444-.444-.444h-7.111c-.245 0-.445.199-.445.444v19.112c0 .245.2.444.445.444h7.111c.245 0 .444-.199.444-.444z"/><path d="m572.877 98.755c0-.245-.199-.444-.444-.444h-7.111c-.245 0-.445.199-.445.444v19.112c0 .245.2.444.445.444h7.111c.245 0 .444-.199.444-.444z"/></g><path d="m530.877 98.311h42v20h-42z" fill="none"/><path d="m551.877 49.311 21 49h-42z" fill="#4d1d73"/><path d="m551.877 49.311 11 26h-22z" fill="#4d1d73"/><path d="m575.255 103.873c0 .242-.196.438-.438.438h-45.879c-.242 0-.438-.196-.438-.438v-5.124c0-.242.196-.438.438-.438h45.879c.242 0 .438.196.438.438z" fill="#4d1d73"/><path d="m280.189 251.311c0-10.494-8.507-19-19-19-10.494 0-19 8.506-19 19z" fill="#4d1d73"/><path d="m242.189 251.311h38v43h-38z" fill="#4d1d73"/><path d="m356.377 251.311c0-10.494-8.506-19-19-19-10.493 0-19 8.506-19 19z" fill="#4d1d73"/><path d="m318.377 251.311h38v43h-38z" fill="#4d1d73"/><path d="m431.566 251.311c0-10.494-8.506-19-19-19-10.493 0-19 8.506-19 19z" fill="#4d1d73"/><path d="m393.566 251.311h38v43h-38z" fill="#4d1d73"/><path d="m344.377 65.795c0-4.686-3.134-8.484-7-8.484s-7 3.798-7 8.484z" fill="#4d1d73"/><path d="m344.377 65.795h-14v35.249c0 .147.12.267.267.267h13.417c.175 0 .316-.142.316-.316z" fill="#4d1d73"/><circle cx="337.377" cy="64.311" fill="#4d1d73" r="4"/><path d="m350.248 183.182c0-7.109-5.762-12.871-12.871-12.871-7.108 0-12.871 5.762-12.871 12.871z" fill="#4d1d73"/><path d="m324.506 183.182h25.742v29.129h-25.742z" fill="#4d1d73"/><path d="m302.5 185.504c0-5.077-4.116-9.193-9.194-9.193-5.077 0-9.193 4.116-9.193 9.193z" fill="#4d1d73"/><path d="m284.113 185.504h18.387v20.806h-18.387z" fill="#4d1d73"/><path d="m274.694 185.504c0-5.077-4.117-9.193-9.194-9.193s-9.194 4.116-9.194 9.193z" fill="#4d1d73"/><path d="m256.306 185.504h18.387v20.806h-18.387z" fill="#4d1d73"/><path d="m246.887 185.504c0-5.077-4.116-9.193-9.193-9.193-5.078 0-9.194 4.116-9.194 9.193z" fill="#4d1d73"/><path d="m228.5 185.504h18.387v20.806h-18.387z" fill="#4d1d73"/><path d="m228.5 185.504h18.387v20.806h-18.387z" fill="#4d1d73"/><path d="m204.5 185.504c0-5.077-4.116-9.193-9.194-9.193-5.077 0-9.193 4.116-9.193 9.193z" fill="#4d1d73"/><path d="m186.113 185.504h18.387v20.806h-18.387z" fill="#4d1d73"/><path d="m186.113 185.504h18.387v20.806h-18.387z" fill="#4d1d73"/><path d="m132.694 185.504c0-5.077-4.117-9.193-9.194-9.193s-9.194 4.116-9.194 9.193z" fill="#4d1d73"/><path d="m114.306 185.504h18.387v20.806h-18.387z" fill="#4d1d73"/><path d="m114.306 185.504h18.387v20.806h-18.387z" fill="#4d1d73"/><path d="m560.694 185.504c0-5.077-4.117-9.193-9.194-9.193s-9.194 4.116-9.194 9.193z" fill="#4d1d73"/><path d="m542.306 185.504h18.387v20.806h-18.387z" fill="#4d1d73"/><path d="m372.255 185.504c0-5.077 4.116-9.193 9.193-9.193 5.078 0 9.194 4.116 9.194 9.193z" fill="#4d1d73"/><path d="m372.255 185.504h18.387v20.806h-18.387z" fill="#4d1d73"/><path d="m399.255 185.504c0-5.077 4.116-9.193 9.193-9.193 5.078 0 9.194 4.116 9.194 9.193z" fill="#4d1d73"/><path d="m399.255 185.504h18.387v20.806h-18.387z" fill="#4d1d73"/><path d="m427.255 185.504c0-5.077 4.116-9.193 9.193-9.193 5.078 0 9.194 4.116 9.194 9.193z" fill="#4d1d73"/><path d="m427.255 185.504h18.387v20.806h-18.387z" fill="#4d1d73"/><path d="m427.255 185.504h18.387v20.806h-18.387z" fill="#4d1d73"/><path d="m470.255 185.504c0-5.077 4.116-9.193 9.193-9.193 5.078 0 9.194 4.116 9.194 9.193z" fill="#4d1d73"/><path d="m470.255 185.504h18.387v20.806h-18.387z" fill="#4d1d73"/><path d="m470.255 185.504h18.387v20.806h-18.387z" fill="#4d1d73"/><path d="m138.694 238.504c0-5.077-4.117-9.193-9.194-9.193s-9.194 4.116-9.194 9.193z" fill="#4d1d73"/><path d="m120.306 238.504h18.387v20.806h-18.387z" fill="#4d1d73"/><path d="m96.071 238.504c0-5.077-4.116-9.193-9.194-9.193-5.077 0-9.193 4.116-9.193 9.193z" fill="#4d1d73"/><path d="m77.684 238.504h18.387v20.806h-18.387z" fill="#4d1d73"/><path d="m77.684 238.504h18.387v20.806h-18.387z" fill="#4d1d73"/><path d="m75.071 238.504c0-5.077-4.116-9.193-9.194-9.193-5.077 0-9.193 4.116-9.193 9.193z" fill="#4d1d73"/><path d="m56.684 238.504h18.387v20.806h-18.387z" fill="#4d1d73"/><path d="m56.684 238.504h18.387v20.806h-18.387z" fill="#4d1d73"/><path d="m54.071 238.504c0-5.077-4.116-9.193-9.194-9.193-5.077 0-9.193 4.116-9.193 9.193z" fill="#4d1d73"/><path d="m35.684 238.504h18.387v20.806h-18.387z" fill="#4d1d73"/><path d="m35.684 238.504h18.387v20.806h-18.387z" fill="#4d1d73"/><path d="m33.071 238.504c0-5.077-4.116-9.193-9.194-9.193-5.077 0-9.193 4.116-9.193 9.193z" fill="#4d1d73"/><path d="m14.684 238.504h18.387v20.806h-18.387z" fill="#4d1d73"/><path d="m560.694 236.504c0-5.077-4.117-9.193-9.194-9.193s-9.194 4.116-9.194 9.193z" fill="#4d1d73"/><path d="m542.306 236.504h18.387v20.806h-18.387z" fill="#4d1d73"/><path d="m597.071 236.504c0-5.077-4.116-9.193-9.194-9.193-5.077 0-9.193 4.116-9.193 9.193z" fill="#4d1d73"/><path d="m578.684 236.504h18.387v20.806h-18.387z" fill="#4d1d73"/><path d="m618.071 236.504c0-5.077-4.116-9.193-9.194-9.193-5.077 0-9.193 4.116-9.193 9.193z" fill="#4d1d73"/><path d="m599.684 236.504h18.387v20.806h-18.387z" fill="#4d1d73"/><path d="m639.071 236.504c0-5.077-4.116-9.193-9.194-9.193-5.077 0-9.193 4.116-9.193 9.193z" fill="#4d1d73"/><path d="m620.684 236.504h18.387v20.806h-18.387z" fill="#4d1d73"/><path d="m660.071 236.504c0-5.077-4.116-9.193-9.194-9.193-5.077 0-9.193 4.116-9.193 9.193z" fill="#4d1d73"/><path d="m641.684 236.504h18.387v20.806h-18.387z" fill="#4d1d73"/><path d="m114.769 140.58c0-1.806-1.464-3.269-3.269-3.269s-3.269 1.463-3.269 3.269z" fill="#4d1d73"/><path d="m108.231 140.58h6.538v11.731h-6.538z" fill="#4d1d73"/><path d="m108.231 140.58h6.538v11.731h-6.538z" fill="#4d1d73"/><path d="m123.769 140.58c0-1.806-1.464-3.269-3.269-3.269s-3.269 1.463-3.269 3.269z" fill="#4d1d73"/><path d="m117.231 140.58h6.538v11.731h-6.538z" fill="#4d1d73"/><path d="m117.231 140.58h6.538v11.731h-6.538z" fill="#4d1d73"/><path d="m132.769 140.58c0-1.806-1.464-3.269-3.269-3.269s-3.269 1.463-3.269 3.269z" fill="#4d1d73"/><path d="m126.231 140.58h6.538v11.731h-6.538z" fill="#4d1d73"/><path d="m126.231 140.58h6.538v11.731h-6.538z" fill="#4d1d73"/><path d="m141.769 140.58c0-1.806-1.464-3.269-3.269-3.269s-3.269 1.463-3.269 3.269z" fill="#4d1d73"/><path d="m135.231 140.58h6.538v11.731h-6.538z" fill="#4d1d73"/><path d="m135.231 140.58h6.538v11.731h-6.538z" fill="#4d1d73"/><path d="m150.769 140.58c0-1.806-1.464-3.269-3.269-3.269s-3.269 1.463-3.269 3.269z" fill="#4d1d73"/><path d="m144.231 140.58h6.538v11.731h-6.538z" fill="#4d1d73"/><path d="m144.231 140.58h6.538v11.731h-6.538z" fill="#4d1d73"/><path d="m350.646 145.58c0-1.806-1.463-3.269-3.269-3.269-1.805 0-3.268 1.463-3.268 3.269z" fill="#4d1d73"/><path d="m344.109 145.58h6.538v11.731h-6.538z" fill="#4d1d73"/><path d="m340.646 145.58c0-1.806-1.463-3.269-3.269-3.269-1.805 0-3.268 1.463-3.268 3.269z" fill="#4d1d73"/><path d="m334.109 145.58h6.538v11.731h-6.538z" fill="#4d1d73"/><path d="m330.646 145.58c0-1.806-1.463-3.269-3.269-3.269-1.805 0-3.268 1.463-3.268 3.269z" fill="#4d1d73"/><path d="m324.109 145.58h6.538v11.731h-6.538z" fill="#4d1d73"/><path d="m305.899 145.58c0-1.806-1.464-3.269-3.269-3.269s-3.269 1.463-3.269 3.269z" fill="#4d1d73"/><path d="m299.361 145.58h6.538v11.731h-6.538z" fill="#4d1d73"/><path d="m295.899 145.58c0-1.806-1.464-3.269-3.269-3.269s-3.269 1.463-3.269 3.269z" fill="#4d1d73"/><path d="m289.361 145.58h6.538v11.731h-6.538z" fill="#4d1d73"/><path d="m286.899 145.58c0-1.806-1.464-3.269-3.269-3.269s-3.269 1.463-3.269 3.269z" fill="#4d1d73"/><path d="m280.361 145.58h6.538v11.731h-6.538z" fill="#4d1d73"/><path d="m277.899 145.58c0-1.806-1.464-3.269-3.269-3.269s-3.269 1.463-3.269 3.269z" fill="#4d1d73"/><path d="m271.361 145.58h6.538v11.731h-6.538z" fill="#4d1d73"/><path d="m267.899 145.58c0-1.806-1.464-3.269-3.269-3.269s-3.269 1.463-3.269 3.269z" fill="#4d1d73"/><path d="m261.361 145.58h6.538v11.731h-6.538z" fill="#4d1d73"/><path d="m258.899 145.58c0-1.806-1.464-3.269-3.269-3.269s-3.269 1.463-3.269 3.269z" fill="#4d1d73"/><path d="m252.361 145.58h6.538v11.731h-6.538z" fill="#4d1d73"/><path d="m249.899 145.58c0-1.806-1.464-3.269-3.269-3.269s-3.269 1.463-3.269 3.269z" fill="#4d1d73"/><path d="m243.361 145.58h6.538v11.731h-6.538z" fill="#4d1d73"/><path d="m240.899 145.58c0-1.806-1.464-3.269-3.269-3.269s-3.269 1.463-3.269 3.269z" fill="#4d1d73"/><path d="m234.361 145.58h6.538v11.731h-6.538z" fill="#4d1d73"/><path d="m231.899 145.58c0-1.806-1.464-3.269-3.269-3.269s-3.269 1.463-3.269 3.269z" fill="#4d1d73"/><path d="m225.361 145.58h6.538v11.731h-6.538z" fill="#4d1d73"/><path d="m206.769 140.58c0-1.806-1.464-3.269-3.269-3.269s-3.269 1.463-3.269 3.269z" fill="#4d1d73"/><path d="m200.231 140.58h6.538v11.731h-6.538z" fill="#4d1d73"/><path d="m198.269 140.58c0-1.806-1.464-3.269-3.269-3.269s-3.269 1.463-3.269 3.269z" fill="#4d1d73"/><path d="m191.731 140.58h6.538v11.731h-6.538z" fill="#4d1d73"/><path d="m189.769 140.58c0-1.806-1.464-3.269-3.269-3.269s-3.269 1.463-3.269 3.269z" fill="#4d1d73"/><path d="m183.231 140.58h6.538v11.731h-6.538z" fill="#4d1d73"/><path d="m181.269 140.58c0-1.806-1.464-3.269-3.269-3.269s-3.269 1.463-3.269 3.269z" fill="#4d1d73"/><path d="m174.731 140.58h6.538v11.731h-6.538z" fill="#4d1d73"/><path d="m172.769 140.58c0-1.806-1.464-3.269-3.269-3.269s-3.269 1.463-3.269 3.269z" fill="#4d1d73"/><path d="m166.231 140.58h6.538v11.731h-6.538z" fill="#4d1d73"/><path d="m560.369 140.58c0-1.806 1.463-3.269 3.269-3.269 1.805 0 3.269 1.463 3.269 3.269z" fill="#4d1d73"/><path d="m560.369 140.58h6.538v11.731h-6.538z" fill="#4d1d73"/><path d="m560.369 140.58h6.538v11.731h-6.538z" fill="#4d1d73"/><path d="m551.369 140.58c0-1.806 1.463-3.269 3.269-3.269 1.805 0 3.269 1.463 3.269 3.269z" fill="#4d1d73"/><path d="m551.369 140.58h6.538v11.731h-6.538z" fill="#4d1d73"/><path d="m551.369 140.58h6.538v11.731h-6.538z" fill="#4d1d73"/><path d="m542.369 140.58c0-1.806 1.463-3.269 3.269-3.269 1.805 0 3.269 1.463 3.269 3.269z" fill="#4d1d73"/><path d="m542.369 140.58h6.538v11.731h-6.538z" fill="#4d1d73"/><path d="m542.369 140.58h6.538v11.731h-6.538z" fill="#4d1d73"/><path d="m533.369 140.58c0-1.806 1.463-3.269 3.269-3.269 1.805 0 3.269 1.463 3.269 3.269z" fill="#4d1d73"/><path d="m533.369 140.58h6.538v11.731h-6.538z" fill="#4d1d73"/><path d="m533.369 140.58h6.538v11.731h-6.538z" fill="#4d1d73"/><path d="m524.369 140.58c0-1.806 1.463-3.269 3.269-3.269 1.805 0 3.269 1.463 3.269 3.269z" fill="#4d1d73"/><path d="m524.369 140.58h6.538v11.731h-6.538z" fill="#4d1d73"/><path d="m524.369 140.58h6.538v11.731h-6.538z" fill="#4d1d73"/><path d="m369.239 145.58c0-1.806 1.463-3.269 3.269-3.269 1.805 0 3.268 1.463 3.268 3.269z" fill="#4d1d73"/><path d="m369.239 145.58h6.538v11.731h-6.538z" fill="#4d1d73"/><path d="m379.239 145.58c0-1.806 1.463-3.269 3.269-3.269 1.805 0 3.268 1.463 3.268 3.269z" fill="#4d1d73"/><path d="m379.239 145.58h6.538v11.731h-6.538z" fill="#4d1d73"/><path d="m388.239 145.58c0-1.806 1.463-3.269 3.269-3.269 1.805 0 3.268 1.463 3.268 3.269z" fill="#4d1d73"/><path d="m388.239 145.58h6.538v11.731h-6.538z" fill="#4d1d73"/><path d="m397.239 145.58c0-1.806 1.463-3.269 3.269-3.269 1.805 0 3.268 1.463 3.268 3.269z" fill="#4d1d73"/><path d="m397.239 145.58h6.538v11.731h-6.538z" fill="#4d1d73"/><path d="m407.239 145.58c0-1.806 1.463-3.269 3.269-3.269 1.805 0 3.268 1.463 3.268 3.269z" fill="#4d1d73"/><path d="m407.239 145.58h6.538v11.731h-6.538z" fill="#4d1d73"/><path d="m416.239 145.58c0-1.806 1.463-3.269 3.269-3.269 1.805 0 3.268 1.463 3.268 3.269z" fill="#4d1d73"/><path d="m416.239 145.58h6.538v11.731h-6.538z" fill="#4d1d73"/><path d="m425.239 145.58c0-1.806 1.463-3.269 3.269-3.269 1.805 0 3.268 1.463 3.268 3.269z" fill="#4d1d73"/><path d="m425.239 145.58h6.538v11.731h-6.538z" fill="#4d1d73"/><path d="m434.239 145.58c0-1.806 1.463-3.269 3.269-3.269 1.805 0 3.268 1.463 3.268 3.269z" fill="#4d1d73"/><path d="m434.239 145.58h6.538v11.731h-6.538z" fill="#4d1d73"/><path d="m443.239 145.58c0-1.806 1.463-3.269 3.269-3.269 1.805 0 3.268 1.463 3.268 3.269z" fill="#4d1d73"/><path d="m443.239 145.58h6.538v11.731h-6.538z" fill="#4d1d73"/><path d="m468.369 140.58c0-1.806 1.463-3.269 3.269-3.269 1.805 0 3.269 1.463 3.269 3.269z" fill="#4d1d73"/><path d="m468.369 140.58h6.538v11.731h-6.538z" fill="#4d1d73"/><path d="m476.869 140.58c0-1.806 1.463-3.269 3.269-3.269 1.805 0 3.269 1.463 3.269 3.269z" fill="#4d1d73"/><path d="m476.869 140.58h6.538v11.731h-6.538z" fill="#4d1d73"/><path d="m485.369 140.58c0-1.806 1.463-3.269 3.269-3.269 1.805 0 3.269 1.463 3.269 3.269z" fill="#4d1d73"/><path d="m485.369 140.58h6.538v11.731h-6.538z" fill="#4d1d73"/><path d="m493.869 140.58c0-1.806 1.463-3.269 3.269-3.269 1.805 0 3.269 1.463 3.269 3.269z" fill="#4d1d73"/><path d="m493.869 140.58h6.538v11.731h-6.538z" fill="#4d1d73"/><path d="m502.369 140.58c0-1.806 1.463-3.269 3.269-3.269 1.805 0 3.269 1.463 3.269 3.269z" fill="#4d1d73"/><path d="m502.369 140.58h6.538v11.731h-6.538z" fill="#4d1d73"/></g></svg>